<svg width="176" height="160" viewBox="0 0 176 160" fill="none" xmlns="http://www.w3.org/2000/svg">
<g clip-path="url(#clip0_6056_355)">
<rect width="176" height="160" rx="12" fill="#EDF2FE"/>
<g filter="url(#filter0_f_6056_355)">
<ellipse cx="123.875" cy="38.5007" rx="71.875" ry="71.5007" fill="#DDEBFF"/>
</g>
<path d="M131.998 67.9845C138.751 67.4084 142.612 64.1529 145.445 60.1856L147.554 55.4226C147.839 54.5377 149.821 56.2608 150.843 55.8748C152.963 55.2868 155.754 54.2653 155 48.0114C154.674 46.5088 153.7 45.7308 152.316 45.3923C154.044 41.6269 155.315 37.8853 154.282 34.2446C153.426 30.6634 151.17 28.6738 148.675 28.1749L150.546 26.797L148.182 26.6308L149.121 23.8988C147.707 24.3205 146.472 25.0628 145.468 26.2447C143.502 23.7919 141.103 21.3984 138.121 20.6857C126.718 17.9597 117.335 24.2729 113.676 32.7896C112.726 34.9989 112.34 37.1013 112.34 40.249L116.996 40.6707L117.24 50.8978C117.851 60.43 119.627 65.6505 128.417 68.0617L132.004 67.9845H131.998Z" fill="white"/>
<path d="M116.999 40.6704C116.999 40.6704 116.405 55.3043 119.511 61.2968C121.673 65.466 125.486 68.0555 130.831 68.0555C138.456 68.0555 145.886 62.9301 147.614 54.6094" stroke="black" stroke-width="1.2" stroke-linecap="round" stroke-linejoin="round"/>
<path d="M147.154 49.2646C148.182 46.4376 150.724 44.7628 152.832 45.5289C154.946 46.2951 155.825 49.2052 154.804 52.0382C153.776 54.8652 151.234 56.54 149.126 55.7738C148.514 55.5481 148.004 55.1502 147.612 54.6157" stroke="black" stroke-width="1.2" stroke-linecap="round" stroke-linejoin="round"/>
<path d="M147.463 28.424C149.405 27.7469 151.899 29.4871 153.117 31.4054C154.34 33.3237 154.703 35.6934 154.489 37.9621C154.299 39.9636 153.236 43.1054 152.493 44.9702" stroke="black" stroke-width="1.2" stroke-linecap="round" stroke-linejoin="round"/>
<path d="M143.352 32.5874C143.88 36.3409 142.976 38.6393 142.846 40.4685C144.538 41.2465 146.183 41.496 147.769 40.908C146.144 42.7146 145.498 44.0646 145.878 46.4402" stroke="black" stroke-width="1.2" stroke-linecap="round" stroke-linejoin="round"/>
<path d="M150.403 26.419C149.607 26.122 149.249 26.1554 148.323 26.1673C148.637 25.2586 148.818 24.8191 149.126 23.9045C147.594 24.3321 146.519 24.9023 145.563 26.1673C136.286 12.8816 111.835 22.3782 112.34 40.2548C119.983 41.5792 126.273 39.8153 130.864 34.1969C129.902 36.4538 129.557 38.1999 130.377 40.2548C135.858 39.459 141.661 37.2377 143.324 32.5637" stroke="black" stroke-width="1.2" stroke-linecap="round" stroke-linejoin="round"/>
<path d="M128.75 44.3706C129.118 46.77 128.702 49.2882 127.574 51.4381C127.122 52.2993 126.54 53.2139 126.718 54.1701C126.885 55.0491 127.698 55.6964 128.566 55.8924C129.439 56.0825 130.347 55.8805 131.179 55.5539" stroke="black" stroke-width="0.7" stroke-linecap="round" stroke-linejoin="round"/>
<path d="M135.867 49.4247C136.515 49.4247 137.031 48.4448 137.031 47.2451C137.031 46.0454 136.509 45.0654 135.867 45.0654C135.226 45.0654 134.703 46.0454 134.703 47.2451C134.703 48.4448 135.226 49.4247 135.867 49.4247Z" fill="black" stroke="black" stroke-width="1.00964" stroke-linecap="round" stroke-linejoin="round"/>
<path d="M124.574 49.4247C125.222 49.4247 125.738 48.4448 125.738 47.2451C125.738 46.0454 125.216 45.0654 124.574 45.0654C123.933 45.0654 123.41 46.0454 123.41 47.2451C123.41 48.4448 123.933 49.4247 124.574 49.4247Z" fill="black" stroke="black" stroke-width="1.00964" stroke-linecap="round" stroke-linejoin="round"/>
<path d="M121.348 43.2301C122.524 41.6266 124.965 41.1277 126.681 42.1373" stroke="black" stroke-width="0.7" stroke-linecap="round" stroke-linejoin="round"/>
<path d="M132.361 42.2447C133.329 41.532 134.559 41.1876 135.758 41.2826C136.958 41.3776 138.116 41.9121 138.96 42.7614" stroke="black" stroke-width="0.7" stroke-linecap="round" stroke-linejoin="round"/>
<path d="M125.053 58.8025C128.004 61.1306 132.013 61.1484 135.862 58.4937" stroke="black" stroke-width="0.7" stroke-linecap="round" stroke-linejoin="round"/>
<path d="M113.358 69.0437L104.133 68.9682L104.179 59.5626L107.611 59.5801L107.582 65.566L113.387 65.6124L113.358 69.0379V69.0437ZM107.605 28.472L107.576 22.4861L113.382 22.4396L113.353 19.0141L104.133 19.0896L104.179 28.4952L107.611 28.4778L107.605 28.472ZM159.87 68.9102L159.823 59.5046L156.392 59.522L156.421 65.5079L150.615 65.5543L150.644 68.9798L159.87 68.9044V68.9102ZM159.87 19.0315L150.644 18.9561L150.615 22.3815L156.421 22.428L156.392 28.4139L159.823 28.4313L159.87 19.0257V19.0315Z" fill="url(#paint0_linear_6056_355)"/>
</g>
<defs>
<filter id="filter0_f_6056_355" x="-7.89583" y="-92.8958" width="263.542" height="262.793" filterUnits="userSpaceOnUse" color-interpolation-filters="sRGB">
<feFlood flood-opacity="0" result="BackgroundImageFix"/>
<feBlend mode="normal" in="SourceGraphic" in2="BackgroundImageFix" result="shape"/>
<feGaussianBlur stdDeviation="29.9479" result="effect1_foregroundBlur_6056_355"/>
</filter>
<linearGradient id="paint0_linear_6056_355" x1="132.001" y1="0.673221" x2="132.001" y2="100.965" gradientUnits="userSpaceOnUse">
<stop offset="0.47" stop-color="#97C0FF"/>
<stop offset="1" stop-color="#97C0FF" stop-opacity="0.25"/>
</linearGradient>
<clipPath id="clip0_6056_355">
<rect width="176" height="160" rx="12" fill="white"/>
</clipPath>
</defs>
</svg>
