<svg width="176" height="196" viewBox="0 0 176 196" fill="none" xmlns="http://www.w3.org/2000/svg">
<g clip-path="url(#clip0_6056_428)">
<rect width="176" height="196" rx="12" fill="#EDF2FE"/>
<g filter="url(#filter0_f_6056_428)">
<ellipse cx="130" cy="41.3876" rx="96" ry="91.3876" fill="#DDEBFF"/>
</g>
<path d="M111.998 104.385C123.368 103.415 129.607 97.7536 134.377 91.0736L138.129 83.0736C138.581 82.4408 142.008 84.6445 143.728 83.9945C147.298 83.0045 151.998 81.2845 150.728 70.7545C150.178 68.2245 148.538 66.9145 146.208 66.3445C149.118 60.0045 151.258 53.7045 149.518 47.5745C148.078 41.5445 144.278 38.1945 140.078 37.3545L143.228 35.0345L139.248 34.7545L140.828 30.1545C138.448 30.8645 136.368 32.1145 134.678 34.1045C131.368 29.9745 127.328 25.9445 122.308 24.7445C103.108 20.1545 87.3084 30.7845 81.1484 45.1245C79.5484 48.8445 78.8984 52.3845 78.8984 57.6845L86.7384 58.3945L87.1484 75.6145C88.1784 91.6645 91.1684 100.455 105.968 104.515L112.008 104.385H111.998Z" fill="white"/>
<path d="M86.7406 58.3945C86.7406 58.3945 85.7406 83.0345 90.9706 93.1245C94.6106 100.145 101.031 104.505 110.031 104.505C122.871 104.505 135.381 95.8745 138.291 81.8645" stroke="black" stroke-width="1.7" stroke-linecap="round" stroke-linejoin="round"/>
<path d="M137.52 72.8643C139.25 68.1043 143.53 65.2843 147.08 66.5743C150.64 67.8643 152.12 72.7643 150.4 77.5343C148.67 82.2943 144.39 85.1143 140.84 83.8243C139.81 83.4443 138.95 82.7743 138.29 81.8743" stroke="black" stroke-width="1.7" stroke-linecap="round" stroke-linejoin="round"/>
<path d="M140.052 76.8045C139.932 75.0945 140.672 73.3445 141.972 72.2145C143.272 71.0945 145.112 70.6245 146.792 70.9945" stroke="black" stroke-width="0.9" stroke-linecap="round" stroke-linejoin="round"/>
<path d="M138.039 37.7744C141.309 36.6344 145.509 39.5644 147.559 42.7944C149.619 46.0244 150.229 50.0144 149.869 53.8344C149.549 57.2044 147.759 62.4944 146.509 65.6344" stroke="black" stroke-width="1.7" stroke-linecap="round" stroke-linejoin="round"/>
<path d="M131.182 44.7144C132.072 51.0344 130.482 54.9744 130.262 58.0544C133.112 59.3644 135.882 59.7844 138.552 58.7944C136.432 62.3644 135.302 65.4644 135.942 69.4644" stroke="black" stroke-width="1.5" stroke-linecap="round" stroke-linejoin="round"/>
<path d="M143.16 34.7442C141.82 34.2442 140.78 34.4042 139.22 34.4242C139.75 32.8942 140.32 31.7042 140.84 30.1642C138.26 30.8842 136.45 31.8442 134.84 33.9742C119.22 11.6042 78.0497 27.5942 78.8997 57.6942C91.7697 59.9242 102.36 56.9542 110.09 47.4942C108.47 51.2942 107.89 54.2342 109.27 57.6942C118.5 56.3542 128.27 52.6142 131.07 44.7442" stroke="black" stroke-width="1.7" stroke-linecap="round" stroke-linejoin="round"/>
<path d="M106.53 64.6245C107.15 68.6645 106.45 72.9045 104.55 76.5245C103.79 77.9745 102.81 79.5145 103.11 81.1245C103.39 82.6045 104.76 83.6945 106.22 84.0245C107.69 84.3445 109.22 84.0045 110.62 83.4545" stroke="black" stroke-linecap="round" stroke-linejoin="round"/>
<path d="M118.511 73.1344C119.601 73.1344 120.471 71.4844 120.471 69.4644C120.471 67.4444 119.591 65.7944 118.511 65.7944C117.431 65.7944 116.551 67.4444 116.551 69.4644C116.551 71.4844 117.431 73.1344 118.511 73.1344Z" fill="black" stroke="black" stroke-width="1.7" stroke-linecap="round" stroke-linejoin="round"/>
<path d="M99.4991 73.1344C100.589 73.1344 101.459 71.4844 101.459 69.4644C101.459 67.4444 100.579 65.7944 99.4991 65.7944C98.4191 65.7944 97.5391 67.4444 97.5391 69.4644C97.5391 71.4844 98.4191 73.1344 99.4991 73.1344Z" fill="black" stroke="black" stroke-width="1.7" stroke-linecap="round" stroke-linejoin="round"/>
<path d="M94.0703 62.7041C96.0503 60.0041 100.16 59.1641 103.05 60.8641" stroke="black" stroke-width="1.7" stroke-linecap="round" stroke-linejoin="round"/>
<path d="M112.609 61.0445C114.239 59.8445 116.309 59.2645 118.329 59.4245C120.349 59.5845 122.299 60.4845 123.719 61.9145" stroke="black" stroke-width="1.7" stroke-linecap="round" stroke-linejoin="round"/>
<path d="M100.309 88.9243C105.279 92.8443 112.029 92.8743 118.509 88.4043" stroke="black" stroke-linecap="round" stroke-linejoin="round"/>
<path d="M80.608 106.168L65.0742 106.041L65.1524 90.204L70.9299 90.2333L70.881 100.312L80.6568 100.39L80.608 106.158V106.168ZM70.9201 37.8546L70.8713 27.7757L80.6471 27.6975L80.5982 21.9298L65.0742 22.0569L65.1524 37.8937L70.9299 37.8643L70.9201 37.8546ZM158.922 105.943L158.844 90.1062L153.066 90.1355L153.115 100.214L143.339 100.293L143.388 106.06L158.922 105.933V105.943ZM158.922 21.9591L143.388 21.832L143.339 27.5998L153.115 27.678L153.066 37.7568L158.844 37.7861L158.922 21.9493V21.9591Z" fill="url(#paint0_linear_6056_428)"/>
</g>
<defs>
<filter id="filter0_f_6056_428" x="-66" y="-150" width="392" height="382.775" filterUnits="userSpaceOnUse" color-interpolation-filters="sRGB">
<feFlood flood-opacity="0" result="BackgroundImageFix"/>
<feBlend mode="normal" in="SourceGraphic" in2="BackgroundImageFix" result="shape"/>
<feGaussianBlur stdDeviation="50" result="effect1_foregroundBlur_6056_428"/>
</filter>
<linearGradient id="paint0_linear_6056_428" x1="111.998" y1="-8.95195" x2="111.998" y2="159.915" gradientUnits="userSpaceOnUse">
<stop offset="0.47" stop-color="#97C0FF"/>
<stop offset="1" stop-color="#97C0FF" stop-opacity="0.25"/>
</linearGradient>
<clipPath id="clip0_6056_428">
<rect width="176" height="196" rx="12" fill="white"/>
</clipPath>
</defs>
</svg>
