<svg width="176" height="160" viewBox="0 0 176 160" fill="none" xmlns="http://www.w3.org/2000/svg">
<g clip-path="url(#clip0_5622_459)">
<rect width="176" height="160" rx="12" fill="#EDF2FE"/>
<g filter="url(#filter0_f_5622_459)">
<ellipse cx="123.875" cy="38.5007" rx="71.875" ry="71.5007" fill="#FFECEC" fill-opacity="0.996078"/>
</g>
<path d="M158.41 28.6087L157.83 63.3377C157.793 65.4444 156.016 67.1023 153.916 66.9839L109.028 64.5718C107.002 64.4596 105.438 62.7456 105.512 60.7137L106.765 27.25C106.84 25.3365 108.348 23.797 110.262 23.6786L154.552 21.0172C156.715 20.8863 158.528 22.6252 158.491 24.7942L158.447 26.8947L158.41 28.6087Z" fill="white"/>
<path d="M158.41 28.6087L157.83 63.3377C157.793 65.4444 156.016 67.1023 153.916 66.9839L109.028 64.5718C107.002 64.4596 105.438 62.7456 105.512 60.7137L106.765 27.25C106.84 25.3365 108.348 23.797 110.262 23.6786L154.552 21.0172C156.715 20.8863 158.528 22.6252 158.491 24.7942L158.447 26.8947L158.41 28.6087Z" stroke="black" stroke-width="1.5" stroke-linecap="round" stroke-linejoin="round"/>
<path d="M108.934 31.0451L158.396 29.7751" stroke="black" stroke-width="0.7" stroke-linecap="round" stroke-linejoin="round"/>
<path d="M111.756 26.1167C111.127 25.7864 110.005 26.1043 110.036 27.3072C110.054 28.2546 110.921 28.5911 111.538 28.4166" stroke="black" stroke-width="0.7" stroke-linecap="round" stroke-linejoin="round"/>
<path d="M115.036 25.942C114.387 25.6553 113.346 25.9919 113.378 27.1574C113.384 27.5625 113.552 27.8492 113.777 28.0424" stroke="black" stroke-width="0.7" stroke-linecap="round" stroke-linejoin="round"/>
<path d="M117.871 25.6362C117.297 25.6549 116.693 26.0601 116.711 26.9513" stroke="black" stroke-width="0.7" stroke-linecap="round" stroke-linejoin="round"/>
<path d="M140.198 39.3415L137.163 39.3602L137.082 42.4392L134.077 42.4267L134.009 45.4621L131.061 45.4309L131.005 48.3915L129.104 48.3479L129.153 45.4372L126.361 45.406L126.405 42.5202L122.69 42.5078L122.646 46.3658L125.376 46.4032L125.339 49.2578L128.125 49.3264L128.081 52.2122L131.877 52.3306L131.94 49.3825L134.863 49.4511L134.931 46.4344L137.948 46.478L138.029 43.4177L141.102 43.4364L141.195 40.3699H144.293L144.436 36.2002L140.291 36.2563L140.198 39.3415Z" fill="white"/>
<path d="M140.612 35.4347C140.573 36.2831 140.534 37.1413 140.494 38.0092C139.727 38.019 138.97 38.0287 138.213 38.0482C138.174 38.8966 138.135 39.745 138.095 40.6032C137.319 40.6129 136.562 40.6227 135.814 40.6324C135.755 41.9002 135.696 43.1679 135.637 44.4259C134.104 44.4259 132.589 44.4064 131.075 44.3869C131.154 42.7291 131.233 41.081 131.311 39.433C132.452 39.4037 133.582 39.394 134.733 39.3842C134.772 38.5456 134.811 37.6971 134.851 36.8585C134.566 36.8585 134.281 36.8585 133.995 36.878C134.015 36.4587 134.035 36.0491 134.045 35.6395C133.189 35.6688 132.334 35.6883 131.488 35.7273C131.469 36.1271 131.449 36.5367 131.429 36.9463C130.662 36.956 129.896 36.9755 129.148 37.0145C129.168 36.6049 129.188 36.1954 129.207 35.7955C128.342 35.815 127.487 35.8345 126.621 35.8736C126.602 36.2734 126.582 36.6732 126.562 37.073C126.287 37.073 126.002 37.0828 125.717 37.0925C125.678 37.9019 125.638 38.7016 125.599 39.5207C126.739 39.5012 127.89 39.4915 129.03 39.472C128.952 41.1103 128.873 42.7486 128.794 44.3772C127.27 44.3576 125.746 44.3479 124.232 44.3284C124.291 43.1387 124.35 41.9392 124.409 40.73C123.642 40.7397 122.876 40.7495 122.118 40.7592C122.158 39.9693 122.197 39.1697 122.236 38.3798C121.479 38.3895 120.722 38.409 119.946 38.4188C119.985 37.6289 120.024 36.839 120.064 36.0686C119.307 36.0783 118.559 36.0978 117.822 36.1369C117.645 39.6183 117.468 43.1094 117.291 46.6103C118.038 46.6201 118.776 46.6396 119.533 46.6591C119.464 48.2194 119.385 49.7797 119.307 51.3595C121.971 51.4765 124.635 51.5838 127.29 51.7008C127.261 52.5102 127.221 53.3293 127.172 54.1485C126.405 54.0997 125.648 54.0705 124.891 54.0217C124.852 54.8311 124.812 55.6308 124.773 56.4402C125.147 56.4694 125.53 56.4889 125.914 56.5279C125.894 56.918 125.874 57.3178 125.855 57.7372C126.612 57.7859 127.369 57.8444 128.145 57.903C128.126 58.3125 128.106 58.7221 128.086 59.1414C128.834 59.1902 129.591 59.2487 130.358 59.317C130.377 58.8976 130.397 58.4881 130.417 58.059C131.174 58.1175 131.941 58.176 132.698 58.2345C132.717 57.8152 132.737 57.3959 132.757 56.9863C133.13 57.0058 133.514 57.0253 133.897 57.0643C133.936 56.2159 133.976 55.3675 134.015 54.5191C133.248 54.4898 132.491 54.441 131.744 54.4118C131.783 53.5731 131.823 52.7345 131.862 51.9153C134.517 52.0226 137.181 52.1494 139.845 52.2664C139.924 50.5306 140.003 48.7947 140.081 47.0784C140.829 47.0882 141.586 47.0979 142.362 47.1174C142.539 43.1874 142.716 39.2672 142.893 35.3665C142.126 35.386 141.369 35.4055 140.612 35.4347Z" fill="url(#paint0_linear_5622_459)"/>
</g>
<defs>
<filter id="filter0_f_5622_459" x="-7.89583" y="-92.8958" width="263.542" height="262.793" filterUnits="userSpaceOnUse" color-interpolation-filters="sRGB">
<feFlood flood-opacity="0" result="BackgroundImageFix"/>
<feBlend mode="normal" in="SourceGraphic" in2="BackgroundImageFix" result="shape"/>
<feGaussianBlur stdDeviation="29.9479" result="effect1_foregroundBlur_5622_459"/>
</filter>
<linearGradient id="paint0_linear_5622_459" x1="136.923" y1="74.0863" x2="126.754" y2="25.8452" gradientUnits="userSpaceOnUse">
<stop offset="0.52" stop-color="#FFD39F"/>
<stop offset="1" stop-color="#FFD39F" stop-opacity="0.5"/>
</linearGradient>
<clipPath id="clip0_5622_459">
<rect width="176" height="160" rx="12" fill="white"/>
</clipPath>
</defs>
</svg>
