<svg width="176" height="196" viewBox="0 0 176 196" fill="none" xmlns="http://www.w3.org/2000/svg">
<g clip-path="url(#clip0_5622_408)">
<rect width="176" height="196" rx="12" fill="#EDF2FE"/>
<g filter="url(#filter0_f_5622_408)">
<ellipse cx="130" cy="41.3876" rx="96" ry="91.3876" fill="#FFECEC"/>
</g>
<path d="M149.908 41.907L149.076 91.7576C149.023 94.7816 146.473 97.1614 143.458 96.9914L79.0242 93.5291C76.1166 93.368 73.8709 90.9077 73.9783 87.9911L75.7766 39.9566C75.8839 37.21 78.049 35.0002 80.7956 34.8302L144.37 31.01C147.475 30.8221 150.078 33.3182 150.025 36.4316L149.962 39.4466L149.908 41.907Z" fill="white"/>
<path d="M149.908 41.907L149.076 91.7576C149.023 94.7816 146.473 97.1614 143.458 96.9914L79.0242 93.5291C76.1166 93.368 73.8709 90.9077 73.9783 87.9911L75.7766 39.9566C75.8839 37.21 78.049 35.0002 80.7956 34.8302L144.37 31.01C147.475 30.8221 150.078 33.3182 150.025 36.4316L149.962 39.4466L149.908 41.907Z" stroke="black" stroke-width="1.57" stroke-linecap="round" stroke-linejoin="round"/>
<path d="M78.4082 45.6828L149.889 43.5813" stroke="black" stroke-width="0.94" stroke-linecap="round" stroke-linejoin="round"/>
<path d="M82.9409 38.3298C82.0373 37.8556 80.4269 38.3119 80.4716 40.0386C80.4985 41.3985 81.742 41.8816 82.6278 41.6311" stroke="black" stroke-width="0.94" stroke-linecap="round" stroke-linejoin="round"/>
<path d="M87.6484 38.0793C86.7179 37.6677 85.2238 38.1508 85.2686 39.8238C85.2775 40.4054 85.5191 40.8169 85.8411 41.0943" stroke="black" stroke-width="0.94" stroke-linecap="round" stroke-linejoin="round"/>
<path d="M91.7174 37.6401C90.8943 37.667 90.0265 38.2485 90.0533 39.5279" stroke="black" stroke-width="0.94" stroke-linecap="round" stroke-linejoin="round"/>
<path d="M123.766 57.3133L119.409 57.3401L119.293 61.7598L114.98 61.7419L114.882 66.0989L110.65 66.0542L110.57 70.3038L107.841 70.2412L107.913 66.0631L103.904 66.0184L103.967 61.8761L98.6349 61.8582L98.5723 67.3962L102.491 67.4498L102.437 71.5474L106.436 71.6458L106.374 75.7881L111.822 75.9581L111.912 71.7263L116.108 71.8248L116.206 67.4946L120.536 67.5572L120.653 63.1644L125.063 63.1913L125.197 58.7895H129.644L129.85 52.8042L123.9 52.8847L123.766 57.3133Z" fill="white"/>
<path d="M124.361 51.7052C124.304 52.923 124.248 54.1548 124.191 55.4006C123.09 55.4146 122.004 55.4286 120.917 55.4566C120.861 56.6744 120.804 57.8923 120.748 59.1241C119.633 59.1381 118.546 59.1521 117.473 59.1661C117.389 60.9858 117.304 62.8056 117.219 64.6113C115.018 64.6113 112.844 64.5833 110.671 64.5553C110.784 62.1757 110.897 59.81 111.01 57.4443C112.647 57.4023 114.27 57.3883 115.921 57.3743C115.978 56.1705 116.034 54.9527 116.09 53.7489C115.681 53.7489 115.272 53.7489 114.863 53.7769C114.891 53.175 114.919 52.587 114.933 51.9991C113.705 52.0411 112.478 52.0691 111.264 52.1251C111.236 52.699 111.207 53.2869 111.179 53.8749C110.078 53.8888 108.978 53.9168 107.905 53.9728C107.933 53.3849 107.961 52.797 107.99 52.2231C106.748 52.2511 105.52 52.2791 104.278 52.3351C104.25 52.909 104.221 53.4829 104.193 54.0568C103.798 54.0568 103.389 54.0708 102.98 54.0848C102.923 55.2467 102.867 56.3945 102.81 57.5703C104.447 57.5423 106.098 57.5283 107.736 57.5003C107.623 59.852 107.51 62.2036 107.397 64.5413C105.209 64.5133 103.022 64.4993 100.848 64.4713C100.933 62.7636 101.018 61.0418 101.103 59.3061C100.002 59.3201 98.9009 59.3341 97.8142 59.3481C97.8707 58.2142 97.9271 57.0664 97.9836 55.9326C96.8969 55.9466 95.8102 55.9745 94.6952 55.9885C94.7517 54.8547 94.8082 53.7209 94.8646 52.615C93.7779 52.629 92.7053 52.657 91.6469 52.713C91.3928 57.7103 91.1388 62.7216 90.8848 67.7468C91.9573 67.7608 93.0158 67.7888 94.1025 67.8168C94.0037 70.0565 93.8908 72.2962 93.7779 74.5639C97.6025 74.7318 101.427 74.8858 105.238 75.0538C105.195 76.2156 105.139 77.3915 105.068 78.5673C103.967 78.4973 102.881 78.4553 101.794 78.3853C101.738 79.5471 101.681 80.695 101.625 81.8568C102.161 81.8988 102.711 81.9268 103.262 81.9828C103.234 82.5427 103.205 83.1166 103.177 83.7185C104.264 83.7885 105.35 83.8725 106.465 83.9565C106.437 84.5444 106.409 85.1323 106.381 85.7342C107.453 85.8042 108.54 85.8882 109.641 85.9862C109.669 85.3843 109.697 84.7964 109.725 84.1805C110.812 84.2645 111.913 84.3484 113 84.4324C113.028 83.8305 113.056 83.2286 113.084 82.6407C113.621 82.6687 114.171 82.6967 114.721 82.7527C114.778 81.5349 114.834 80.317 114.891 79.0992C113.79 79.0572 112.703 78.9872 111.631 78.9452C111.687 77.7414 111.744 76.5376 111.8 75.3617C115.611 75.5157 119.435 75.6977 123.26 75.8657C123.373 73.374 123.486 70.8824 123.598 68.4187C124.671 68.4327 125.758 68.4467 126.873 68.4747C127.127 62.8336 127.381 57.2064 127.635 51.6072C126.534 51.6352 125.447 51.6632 124.361 51.7052Z" fill="url(#paint0_linear_5622_408)"/>
</g>
<defs>
<filter id="filter0_f_5622_408" x="-66" y="-150" width="392" height="382.775" filterUnits="userSpaceOnUse" color-interpolation-filters="sRGB">
<feFlood flood-opacity="0" result="BackgroundImageFix"/>
<feBlend mode="normal" in="SourceGraphic" in2="BackgroundImageFix" result="shape"/>
<feGaussianBlur stdDeviation="50" result="effect1_foregroundBlur_5622_408"/>
</filter>
<linearGradient id="paint0_linear_5622_408" x1="119.066" y1="107.186" x2="104.468" y2="37.9401" gradientUnits="userSpaceOnUse">
<stop offset="0.52" stop-color="#FFD39F"/>
<stop offset="1" stop-color="#FFD39F" stop-opacity="0.5"/>
</linearGradient>
<clipPath id="clip0_5622_408">
<rect width="176" height="196" rx="12" fill="white"/>
</clipPath>
</defs>
</svg>
