<svg width="176" height="196" viewBox="0 0 176 196" fill="none" xmlns="http://www.w3.org/2000/svg">
<g clip-path="url(#clip0_3164_5393)">
<rect width="176" height="196" rx="12" fill="#EDF2FE"/>
<g filter="url(#filter0_f_3164_5393)">
<ellipse cx="130" cy="41.3876" rx="96" ry="91.3876" fill="#FAEDFF"/>
</g>
<path d="M150.177 51.0381H141.243V59.9716H133.471V51.0381H124.537V43.2658H133.471V34.3322H141.243V43.2658H150.177V51.0381ZM160 28.4549H155.693V24.1479H151.945V28.4549H147.638V32.2022H151.945V36.5091H155.693V32.2022H160V28.4549Z" fill="url(#paint0_linear_3164_5393)"/>
<path d="M91.0755 77.717C90.7991 77.5436 90.5615 77.3684 90.3627 77.188C90.1085 76.9559 89.5625 76.1962 89.5625 74.9915V69.1902C89.5625 67.9386 90.1254 67.3093 90.1493 67.2828C90.3811 67.0291 90.6933 66.7728 91.0758 66.5329C91.0735 66.478 91.0741 66.4129 91.0741 66.3557V60.5544C91.0741 59.3028 91.637 58.6734 91.6609 58.647C94.0162 56.0713 104.446 54.1309 116.957 54.1309C129.467 54.1309 139.897 56.0713 142.252 58.647C142.276 58.6734 142.839 59.3028 142.839 60.5544V66.3557C142.839 67.5604 142.293 68.3201 142.039 68.5522C141.842 68.7308 141.603 68.9089 141.331 69.0806L141.327 74.9915C141.327 75.052 141.324 75.1132 141.322 75.1713C141.708 75.4127 142.019 75.6635 142.252 75.9186C142.276 75.9451 142.839 76.5745 142.839 77.826V83.6274C142.839 84.8321 142.293 85.5917 142.039 85.8239C139.321 88.2939 129.121 90.1286 116.957 90.1286C104.792 90.1286 94.5918 88.2942 91.8743 85.8239C91.6201 85.5917 91.0741 84.8321 91.0741 83.6274L91.0753 77.7173L91.0755 77.717Z" fill="white" stroke="black" stroke-width="1.5" stroke-linecap="round" stroke-linejoin="round"/>
<path d="M137.525 62.1591C133.274 63.5957 125.653 64.5533 116.959 64.5533C103.624 64.5533 92.8145 62.3007 92.8145 59.522" stroke="black" stroke-width="0.8" stroke-linecap="round" stroke-linejoin="round"/>
<path opacity="0.9" d="M141.336 69.0771C137.504 71.4879 126.354 73.1526 113.68 72.8123" stroke="black" stroke-width="1.5" stroke-linecap="round" stroke-linejoin="round"/>
<path d="M91.0801 66.5244C91.1275 67.6316 91.6344 68.3314 91.8766 68.5526C92.7731 69.3678 93.9979 69.8493 95.1146 70.2717" stroke="black" stroke-width="1.5" stroke-linecap="round" stroke-linejoin="round"/>
<path d="M141.323 75.1704C141.273 76.2718 140.769 76.9682 140.527 77.1889C139.17 78.4223 135.948 79.497 131.547 80.2644" stroke="black" stroke-width="1.5" stroke-linecap="round" stroke-linejoin="round"/>
<path d="M92.4632 102.923C79.9732 102.923 69.5004 100.987 66.7102 98.3789C66.449 98.1338 65.8887 97.3318 65.8887 96.0601V89.5943C65.8887 88.2732 66.4666 87.6087 66.4913 87.5808C68.9096 84.8616 79.6182 82.813 92.4632 82.813C105.308 82.813 116.017 84.8616 118.435 87.5808C118.46 87.6087 119.038 88.2732 119.038 89.5943V96.0601C119.038 97.3318 118.477 98.1338 118.216 98.3789C115.426 100.987 104.953 102.923 92.4632 102.923Z" fill="white" stroke="black" stroke-width="1.5" stroke-linecap="round" stroke-linejoin="round"/>
<path d="M113.147 91.4333C108.709 92.869 101.103 93.8157 92.4644 93.8157C78.7728 93.8157 67.6738 91.4377 67.6738 88.5039" stroke="black" stroke-width="0.8" stroke-linecap="round" stroke-linejoin="round"/>
<path d="M99.9648 95.5923V93.7108C99.9648 93.7034 99.9648 93.6959 99.9648 93.6885" stroke="black" stroke-width="0.8" stroke-linecap="round" stroke-linejoin="round"/>
<path d="M104.73 98.976V93.3939C104.73 93.3807 104.73 93.3677 104.73 93.3545" stroke="black" stroke-width="0.8" stroke-linecap="round" stroke-linejoin="round"/>
<path d="M108.486 101.66V96.6187" stroke="black" stroke-width="0.8" stroke-linecap="round" stroke-linejoin="round"/>
<path d="M112.168 101.026L112.168 98.6919" stroke="black" stroke-width="0.8" stroke-linecap="round" stroke-linejoin="round"/>
<path d="M73.6584 89.7364C70.2624 88.3909 74.9965 85.9655 89.3215 85.5254" stroke="black" stroke-width="0.8" stroke-linecap="round" stroke-linejoin="round"/>
<path d="M118.475 56.5874C107.023 56.5874 97.7402 57.9444 97.7402 59.6186" stroke="black" stroke-width="0.8" stroke-linecap="round" stroke-linejoin="round"/>
</g>
<defs>
<filter id="filter0_f_3164_5393" x="-66" y="-150" width="392" height="382.775" filterUnits="userSpaceOnUse" color-interpolation-filters="sRGB">
<feFlood flood-opacity="0" result="BackgroundImageFix"/>
<feBlend mode="normal" in="SourceGraphic" in2="BackgroundImageFix" result="shape"/>
<feGaussianBlur stdDeviation="50" result="effect1_foregroundBlur_3164_5393"/>
</filter>
<linearGradient id="paint0_linear_3164_5393" x1="129.611" y1="60.2098" x2="159.814" y2="9.29571" gradientUnits="userSpaceOnUse">
<stop stop-color="#CBB6FF"/>
<stop offset="1" stop-color="#CBB6FF" stop-opacity="0.1"/>
</linearGradient>
<clipPath id="clip0_3164_5393">
<rect width="176" height="196" rx="12" fill="white"/>
</clipPath>
</defs>
</svg>
