<svg width="176" height="160" viewBox="0 0 176 160" fill="none" xmlns="http://www.w3.org/2000/svg">
<g clip-path="url(#clip0_3256_2800)">
<rect width="176" height="160" rx="12" fill="#EDF2FE"/>
<g filter="url(#filter0_f_3256_2800)">
<ellipse cx="123.875" cy="38.5007" rx="71.875" ry="71.5007" fill="#E2DDFF"/>
</g>
<g clip-path="url(#clip1_3256_2800)">
<g clip-path="url(#clip2_3256_2800)">
<path d="M150.327 33.2052C149.641 34.676 148.954 39.5787 148.758 42.1281C148.562 44.6775 149.053 50.4627 149.053 50.4627C149.053 50.4627 156.897 48.4036 157.191 49.2861C157.289 50.8549 155.622 53.3063 153.759 54.6791C155.622 54.1888 156.309 55.3654 156.309 55.3654C155.916 57.8168 151.994 59.4837 151.994 59.4837C151.994 59.4837 153.367 59.8759 153.171 60.5623C151.21 64.3864 145.326 64.2884 145.326 64.2884C145.326 64.2884 141.306 70.1716 131.403 70.956C121.499 71.6424 115.714 63.8961 115.42 62.5234C108.36 60.7584 108.36 58.9934 108.948 57.2285C104.634 53.3063 107.38 53.0121 108.262 53.0121C106.497 51.4433 105.517 48.5017 106.007 47.4231C106.497 46.3445 113.753 49.4822 113.753 49.4822C113.753 49.4822 113.949 45.7561 113.851 43.0106C113.753 40.1671 116.401 38.6962 116.401 38.6962L116.302 31.1461C116.302 31.1461 116.499 28.8908 116.989 28.3025C117.675 27.42 120.421 27.9103 122.088 31.2441C121.695 30.1655 125.127 28.5967 125.127 28.5967L120.323 21.929L141.502 18.0068L145.425 29.3811L140.13 30.5578L139.737 31.9305L141.404 33.9897L148.562 30.0675L150.131 30.7539C150.523 31.4402 150.523 32.3227 150.327 33.2052Z" fill="white"/>
<path d="M140.352 30.298C142.184 29.7621 145.016 29.0878 145.016 29.0878L141.404 17.7129L119.832 21.7331L124.833 28.3027" stroke="black" stroke-width="1.3" stroke-miterlimit="10" stroke-linecap="round" stroke-linejoin="round"/>
<path d="M140.524 28.793L139.543 31.9307" stroke="black" stroke-width="0.7" stroke-miterlimit="10" stroke-linecap="round" stroke-linejoin="round"/>
<path d="M127.286 28.1065L127.09 25.5571C128.266 24.3805 133.463 24.5766 136.895 25.7532" stroke="black" stroke-width="0.7" stroke-miterlimit="10" stroke-linecap="round" stroke-linejoin="round"/>
<path d="M145.229 64.2882C142.679 67.7201 138.561 70.3675 131.697 70.7598C118.754 71.4461 114.636 61.9349 113.361 57.5225" stroke="black" stroke-width="1.3" stroke-miterlimit="10" stroke-linecap="round" stroke-linejoin="round"/>
<path d="M125.029 33.1069C124.049 33.5972 122.284 32.7147 121.99 31.3419C121.303 27.812 128.756 27.812 130.815 28.0081C137.58 28.6945 141.503 33.6952 141.503 33.6952L147.68 30.0672C149.151 29.1848 151.112 30.3614 150.425 32.7147C149.445 36.3427 148.955 38.0096 148.955 39.6765C148.759 42.8143 148.857 47.717 149.053 50.2664" stroke="black" stroke-width="1.3" stroke-miterlimit="10" stroke-linecap="round" stroke-linejoin="round"/>
<path d="M121.844 30.5382C121.844 30.5382 119.637 27.0283 117.186 28.0088C115.617 28.5972 116.304 32.8135 116.107 38.4026" stroke="black" stroke-width="1.3" stroke-miterlimit="10" stroke-linecap="round" stroke-linejoin="round"/>
<path d="M120.421 37.5197C120.421 37.5197 114.342 37.4217 114.342 41.54" stroke="black" stroke-width="1.3" stroke-miterlimit="10" stroke-linecap="round" stroke-linejoin="round"/>
<path d="M132.383 37.1277C132.383 37.1277 136.207 35.4608 141.404 39.6771" stroke="black" stroke-width="1.3" stroke-miterlimit="10" stroke-linecap="round" stroke-linejoin="round"/>
<path d="M133.56 51.5417C134.835 51.5417 135.815 50.0709 135.815 48.2079C135.815 46.3448 134.835 44.874 133.56 44.874C132.285 44.874 131.305 46.3448 131.305 48.2079C131.305 50.0709 132.285 51.5417 133.56 51.5417Z" fill="black"/>
<path d="M121.402 51.2478C122.676 51.2478 123.657 49.7769 123.657 47.9139C123.657 46.0509 122.676 44.5801 121.402 44.5801C120.127 44.5801 119.146 46.0509 119.146 47.9139C119.146 49.7769 120.225 51.2478 121.402 51.2478Z" fill="black"/>
<path d="M139.543 35.167L141.975 33.6962" stroke="black" stroke-width="0.7" stroke-miterlimit="10" stroke-linecap="round" stroke-linejoin="round"/>
<path d="M125.258 33.2168C125.258 33.2168 124.343 34.0875 124.932 34.8719C125.422 35.5583 126.501 35.7544 127.285 35.2641" stroke="black" stroke-width="0.7" stroke-miterlimit="10" stroke-linecap="round" stroke-linejoin="round"/>
<path d="M115.519 62.6215C115.519 62.6215 109.734 61.8371 108.459 58.7974C108.067 57.9149 109.146 57.5227 109.146 57.5227C109.146 57.5227 106.988 56.0519 106.596 54.385C106.204 52.718 108.361 53.4044 108.361 53.4044C108.361 53.4044 102.968 46.7367 106.89 47.129C108.851 47.3251 110.813 48.3056 111.989 49.09" stroke="black" stroke-width="1.3" stroke-miterlimit="10" stroke-linecap="round" stroke-linejoin="round"/>
<path d="M146.896 51.1491C146.896 51.1491 158.172 46.9328 157.192 49.9725C156.211 53.0122 153.466 54.6791 153.466 54.6791C153.466 54.6791 157.192 53.9927 155.819 56.2479C154.446 58.6993 151.701 59.4837 151.701 59.4837C151.701 59.4837 153.956 59.8759 152.485 61.5429C149.543 64.1903 144.15 64.1903 144.15 64.1903" stroke="black" stroke-width="1.3" stroke-miterlimit="10" stroke-linecap="round" stroke-linejoin="round"/>
<path d="M131.6 52.6199L139.542 52.914L139.346 57.2284L132.384 56.9342C132.482 54.5809 132.286 53.7965 131.6 52.6199ZM140.032 41.4417L129.442 41.0495L129.246 45.3639L139.836 45.7561L139.542 52.914L143.856 53.1101L144.151 45.9522L153.073 46.3444L153.27 42.03L140.032 41.4417ZM124.638 52.3257L114.832 51.9335L114.636 56.2479L122.775 56.542C122.873 54.679 123.657 53.3062 124.932 52.3257L125.618 52.1296C126.893 51.5413 128.952 52.0315 128.952 52.0315L129.246 45.3639L124.932 45.1678L124.638 52.3257ZM124.932 45.0697L125.128 40.7553L110.91 40.167L110.42 51.6393L114.734 51.8354L115.028 44.6775L124.932 45.0697Z" fill="url(#paint0_linear_3256_2800)"/>
<path d="M125.52 52.0322C125.52 52.0322 121.499 53.2089 123.264 58.798C125.127 56.9349 125.814 57.6213 128.069 57.3271C130.03 57.2291 129.932 55.268 129.932 55.268" stroke="black" stroke-width="0.7" stroke-miterlimit="10" stroke-linecap="round" stroke-linejoin="round"/>
<path d="M130.128 55.9541C130.226 56.3463 128.853 61.3471 127.284 60.1704C126.108 59.1899 126.01 57.4249 126.01 57.4249C126.01 57.4249 129.344 57.621 130.128 55.9541Z" fill="black"/>
<path d="M126.207 62.2287C126.207 62.1306 127.09 63.5034 128.756 63.0131" stroke="black" stroke-width="0.7" stroke-miterlimit="10" stroke-linecap="round" stroke-linejoin="round"/>
</g>
</g>
</g>
<defs>
<filter id="filter0_f_3256_2800" x="-48" y="-133" width="343.75" height="343.001" filterUnits="userSpaceOnUse" color-interpolation-filters="sRGB">
<feFlood flood-opacity="0" result="BackgroundImageFix"/>
<feBlend mode="normal" in="SourceGraphic" in2="BackgroundImageFix" result="shape"/>
<feGaussianBlur stdDeviation="50" result="effect1_foregroundBlur_3256_2800"/>
</filter>
<linearGradient id="paint0_linear_3256_2800" x1="138.47" y1="59.0695" x2="126.221" y2="36.1594" gradientUnits="userSpaceOnUse">
<stop offset="0.0467677" stop-color="#B196FF" stop-opacity="0.5"/>
<stop offset="0.8393" stop-color="#B196FF"/>
</linearGradient>
<clipPath id="clip0_3256_2800">
<rect width="176" height="160" rx="12" fill="white"/>
</clipPath>
<clipPath id="clip1_3256_2800">
<rect width="56" height="56" fill="white" transform="translate(104 16)"/>
</clipPath>
<clipPath id="clip2_3256_2800">
<rect width="54.7124" height="54.7124" fill="white" transform="translate(104 17)"/>
</clipPath>
</defs>
</svg>
