<svg width="176" height="196" viewBox="0 0 176 196" fill="none" xmlns="http://www.w3.org/2000/svg">
<g clip-path="url(#clip0_3256_2775)">
<rect width="176" height="196" rx="12" fill="#EDF2FE"/>
<g filter="url(#filter0_f_3256_2775)">
<ellipse cx="130" cy="41.3876" rx="96" ry="91.3876" fill="#E2DDFF"/>
</g>
<path d="M145.45 44.9168C144.25 47.4168 143.15 55.6168 142.85 59.8168C142.55 64.0168 143.35 73.7168 143.35 73.7168C143.35 73.7168 156.55 70.2168 156.95 71.7168C157.15 74.3168 154.35 78.4168 151.15 80.8168C154.25 80.0168 155.45 82.0168 155.45 82.0168C154.75 86.1168 148.25 88.9168 148.25 88.9168C148.25 88.9168 150.55 89.6168 150.15 90.7168C146.95 97.1168 137.05 96.9168 137.05 96.9168C137.05 96.9168 130.35 106.817 113.75 108.017C97.1502 109.217 87.4502 96.2168 86.9502 93.9168C75.1502 91.0168 75.1502 88.0168 76.0502 85.1168C68.8502 78.6168 73.4502 78.0168 74.8502 78.0168C71.8502 75.4168 70.2502 70.4168 71.1502 68.6168C72.0502 66.8168 84.0502 72.0168 84.0502 72.0168C84.0502 72.0168 84.4502 65.8168 84.2502 61.1168C84.0502 56.4168 88.4502 53.9168 88.4502 53.9168L88.2502 41.2168C88.2502 41.2168 88.5502 37.5168 89.4502 36.4168C90.6502 35.0168 95.2502 35.8168 97.9502 41.3168C97.2502 39.5168 103.05 36.8168 103.05 36.8168L94.9502 25.7168L130.45 19.2168L137.05 38.2168L128.25 40.2168L127.65 42.5168L130.45 45.9168L142.45 39.4168L145.15 40.6168C145.85 42.0168 145.85 43.4168 145.45 44.9168Z" fill="white"/>
<path d="M128.551 40.5166L136.951 38.5166L130.551 19.0166L94.5508 25.8166L102.951 36.8166" stroke="black" stroke-width="1.5" stroke-miterlimit="10" stroke-linecap="round" stroke-linejoin="round"/>
<path d="M128.351 35.917C128.751 36.417 129.051 36.917 129.151 37.517L127.551 42.717" stroke="black" stroke-miterlimit="10" stroke-linecap="round" stroke-linejoin="round"/>
<path d="M106.95 36.4166L106.65 32.2166C108.65 30.3166 117.25 30.6166 123.05 32.6166" stroke="black" stroke-miterlimit="10" stroke-linecap="round" stroke-linejoin="round"/>
<path d="M137.05 97.0168C132.85 102.717 125.85 107.117 114.45 107.817C92.75 109.017 85.85 93.0168 83.75 85.7168" stroke="black" stroke-width="1.5" stroke-miterlimit="10" stroke-linecap="round" stroke-linejoin="round"/>
<path d="M103.251 44.8168C101.551 45.7168 98.6512 44.1168 98.1512 41.9168C96.9512 36.0168 109.451 36.0168 112.951 36.4168C124.251 37.6168 130.751 45.9168 130.751 45.9168L141.051 39.9168C143.451 38.4168 146.751 40.4168 145.651 44.3168C143.951 50.4168 143.251 53.1168 143.151 55.9168C142.851 61.2168 142.951 69.4168 143.351 73.6168" stroke="black" stroke-width="1.5" stroke-miterlimit="10" stroke-linecap="round" stroke-linejoin="round"/>
<path d="M98.05 40.7167C98.05 40.7167 94.15 34.6167 90.05 36.2167C87.45 37.2167 88.55 44.2167 88.25 53.6167" stroke="black" stroke-width="1.5" stroke-miterlimit="10" stroke-linecap="round" stroke-linejoin="round"/>
<path d="M95.5492 52.1168C95.5492 52.1168 85.4492 51.9168 85.4492 58.9168" stroke="black" stroke-width="1.5" stroke-miterlimit="10" stroke-linecap="round" stroke-linejoin="round"/>
<path d="M115.449 51.517C115.449 51.517 121.849 48.717 130.549 55.717" stroke="black" stroke-width="1.5" stroke-miterlimit="10" stroke-linecap="round" stroke-linejoin="round"/>
<path d="M117.521 75.6492C119.621 75.6492 121.221 73.1492 121.221 70.0492C121.221 66.9492 119.521 64.4492 117.521 64.4492C115.421 64.4492 113.821 66.9492 113.821 70.0492C113.721 73.1492 115.421 75.6492 117.521 75.6492Z" fill="black"/>
<path d="M97.1199 75.1492C99.2199 75.1492 100.82 72.6492 100.82 69.5492C100.82 66.4492 99.1199 63.9492 97.1199 63.9492C95.0199 63.9492 93.4199 66.4492 93.4199 69.5492C93.4199 72.6492 95.1199 75.1492 97.1199 75.1492Z" fill="black"/>
<path d="M127.15 48.1166L131.15 46.0166" stroke="black" stroke-miterlimit="10" stroke-linecap="round" stroke-linejoin="round"/>
<path d="M103.451 45.0166C103.451 45.0166 101.851 46.3166 102.751 47.6166C103.551 48.8166 105.451 49.1166 106.651 48.2166" stroke="black" stroke-miterlimit="10" stroke-linecap="round" stroke-linejoin="round"/>
<path d="M87.2503 94.217C87.2503 94.217 77.6503 92.917 75.4503 87.817C74.7503 86.317 76.6503 85.617 76.6503 85.617C76.6503 85.617 73.0503 83.117 72.3503 80.317C71.6503 77.517 75.2503 78.717 75.2503 78.717C75.2503 78.717 66.1503 67.517 72.8503 68.217C76.1503 68.617 79.3503 70.217 81.3503 71.517" stroke="black" stroke-width="1.5" stroke-miterlimit="10" stroke-linecap="round" stroke-linejoin="round"/>
<path d="M139.75 75.0173C139.75 75.0173 158.65 67.9173 157.05 73.0173C155.45 78.1173 150.75 80.9173 150.75 80.9173C150.75 80.9173 156.95 79.7173 154.75 83.6173C152.45 87.7173 147.85 89.0173 147.85 89.0173C147.85 89.0173 151.65 89.7173 149.15 92.4173C144.25 96.9173 135.15 96.9173 135.15 96.9173" stroke="black" stroke-width="1.5" stroke-miterlimit="10" stroke-linecap="round" stroke-linejoin="round"/>
<path d="M114.22 77.3484L127.52 77.8484L127.22 85.1484L115.62 84.6484C115.72 80.7484 115.32 79.3484 114.22 77.3484ZM128.22 58.6484L110.52 57.9484L110.22 65.2484L127.92 65.9484L127.42 77.9484L134.72 78.2484L135.22 66.2484L150.22 66.8484L150.62 59.5484L128.22 58.6484ZM102.52 76.8484L86.1203 76.1484L85.8203 83.4484L99.4203 83.9484C99.5203 80.8484 100.92 78.5484 103.02 76.8484L104.22 76.4484C106.32 75.4484 109.82 76.2484 109.82 76.2484L110.32 65.1484L103.02 64.8484L102.52 76.8484ZM103.02 64.8484L103.32 57.5484L79.6203 56.6484L78.8203 75.8484L86.1203 76.1484L86.6203 64.1484L103.02 64.8484Z" fill="url(#paint0_linear_3256_2775)"/>
<path d="M104.019 76.4492C104.019 76.4492 97.2193 78.3492 100.219 87.7492C103.319 84.6492 104.419 85.8492 108.219 85.3492C111.519 85.1492 111.319 81.8492 111.319 81.8492" stroke="black" stroke-miterlimit="10" stroke-linecap="round" stroke-linejoin="round"/>
<path d="M111.619 83.0488C111.719 83.7488 109.519 92.1488 106.919 90.1488C104.919 88.5488 104.719 85.5488 104.719 85.5488C104.719 85.5488 110.319 85.8488 111.619 83.0488Z" fill="black"/>
<path d="M105.219 93.5485C105.219 93.3485 106.719 95.6485 109.519 94.8485" stroke="black" stroke-miterlimit="10" stroke-linecap="round" stroke-linejoin="round"/>
</g>
<defs>
<filter id="filter0_f_3256_2775" x="-66" y="-150" width="392" height="382.775" filterUnits="userSpaceOnUse" color-interpolation-filters="sRGB">
<feFlood flood-opacity="0" result="BackgroundImageFix"/>
<feBlend mode="normal" in="SourceGraphic" in2="BackgroundImageFix" result="shape"/>
<feGaussianBlur stdDeviation="50" result="effect1_foregroundBlur_3256_2775"/>
</filter>
<linearGradient id="paint0_linear_3256_2775" x1="125.362" y1="88.3832" x2="104.867" y2="50.0532" gradientUnits="userSpaceOnUse">
<stop offset="0.0467677" stop-color="#B196FF" stop-opacity="0.5"/>
<stop offset="0.839304" stop-color="#B196FF"/>
</linearGradient>
<clipPath id="clip0_3256_2775">
<rect width="176" height="196" rx="12" fill="white"/>
</clipPath>
</defs>
</svg>
