<svg width="176" height="160" viewBox="0 0 176 160" fill="none" xmlns="http://www.w3.org/2000/svg">
<g clip-path="url(#clip0_10964_7208)">
<rect width="176" height="160" rx="12" fill="#EDF2FE"/>
<g filter="url(#filter0_f_10964_7208)">
<ellipse cx="123.875" cy="38.5007" rx="71.875" ry="71.5007" fill="#F0FFF2"/>
</g>
<path d="M153.546 25.4209L153.224 28.3754L151.141 47.3456C150.455 50.9459 149.373 54.0861 147.807 56.7015C146.225 60.2857 139.194 66.0817 131.396 69.9161H127.303C127.238 69.8758 127.182 69.8354 127.117 69.795C125.422 68.681 123.775 67.5913 122.266 66.5338C119.997 64.9677 118.028 63.4582 116.567 62.0132C116.211 61.6661 115.88 61.3109 115.59 60.9638C114.96 60.2453 114.387 59.5027 113.87 58.7277C112.337 56.4271 111.303 53.8843 110.738 51.1154C110.625 49.3153 110.545 47.1841 110.488 44.8028C110.375 39.9028 110.359 33.9615 110.367 27.7376C116.623 25.55 123.21 22.1757 129.999 18.083C130.508 18.3494 131.024 18.6077 131.549 18.8499C135.206 20.5532 139.113 21.6752 143.254 22.5067C144.788 22.8135 146.354 23.0879 147.952 23.3301C148.687 23.4431 149.43 23.5561 150.18 23.6611C150.196 23.6611 150.213 23.6691 150.229 23.6691C150.301 23.6853 150.366 23.6934 150.439 23.7014L153.546 25.4209Z" fill="white"/>
<path d="M130.402 67.9947L134.075 65.7183C135.859 64.6123 137.579 63.353 139.153 61.8919C143.891 57.4925 147.29 52.3826 147.96 46.2556L150.156 26.2925" stroke="black" stroke-width="0.7" stroke-linecap="round" stroke-linejoin="round"/>
<path d="M150.439 23.7095C141.874 22.5794 135.521 20.3433 129.87 18.083C124.09 21.6187 117.947 25.0899 110.367 27.7376L110.488 48.1932C110.521 53.7955 112.991 58.3403 116.793 62.2957C118.093 63.6438 119.554 64.8063 121.12 65.8395L127.295 69.9161" stroke="black" stroke-width="1.2" stroke-linecap="round" stroke-linejoin="round"/>
<path d="M123.251 63.3293C121.023 61.8763 118.997 60.1568 117.326 58.1064C114.67 54.8452 113.411 51.5193 113.387 47.8544L113.266 29.8368C119.473 27.4877 124.785 24.6058 129.693 21.6836C134.472 23.5887 139.921 25.4615 146.742 26.6562L144.595 46.2238C144.159 50.1793 142.351 53.8603 139.017 57.5091C136.966 59.7532 134.601 61.626 132.099 63.2001L127.489 66.0982L123.251 63.3374V63.3293Z" stroke="black" stroke-width="0.7" stroke-linecap="round" stroke-linejoin="round"/>
<path d="M138.895 51.1368L136.223 48.0612L130.071 40.9817L131.646 39.5125L129.902 37.5267L132.517 35.0323L127.553 29.4946L125.05 32.0052L123.823 30.6086L118.149 36.3723L119.311 37.7527L117.858 39.2058L117.115 39.9484L121.62 45.3973L122.395 44.6547L123.912 43.2097L125.567 45.1794L126.931 43.9039L129.692 47.1571L127.238 49.377L129.272 51.823L131.775 49.6111L132.905 50.9431L129.958 53.5182L132.542 56.6261L138.943 51.2011L138.895 51.1368ZM127.634 37.9626L124.606 40.8687L121.934 37.7285L124.881 34.8063L127.626 37.9626H127.634Z" fill="url(#paint0_linear_10964_7208)"/>
<path d="M127.303 69.9149H131.404C131.404 69.9149 138.136 66.5648 143.205 62.1411C148.154 57.8305 150.616 52.204 151.31 46.077L153.635 25.4358L150.512 23.7422" stroke="black" stroke-width="1.2" stroke-linecap="round" stroke-linejoin="round"/>
</g>
<defs>
<filter id="filter0_f_10964_7208" x="-7.89583" y="-92.8958" width="263.542" height="262.793" filterUnits="userSpaceOnUse" color-interpolation-filters="sRGB">
<feFlood flood-opacity="0" result="BackgroundImageFix"/>
<feBlend mode="normal" in="SourceGraphic" in2="BackgroundImageFix" result="shape"/>
<feGaussianBlur stdDeviation="29.9479" result="effect1_foregroundBlur_10964_7208"/>
</filter>
<linearGradient id="paint0_linear_10964_7208" x1="120.126" y1="8.97095" x2="134.086" y2="62.0341" gradientUnits="userSpaceOnUse">
<stop stop-color="#76E4BB" stop-opacity="0"/>
<stop offset="0.469603" stop-color="#76E4BB" stop-opacity="0.716841"/>
<stop offset="1" stop-color="#76E4BB"/>
</linearGradient>
<clipPath id="clip0_10964_7208">
<rect width="176" height="160" rx="12" fill="white"/>
</clipPath>
</defs>
</svg>
