<svg width="176" height="196" viewBox="0 0 176 196" fill="none" xmlns="http://www.w3.org/2000/svg">
<g clip-path="url(#clip0_10964_7257)">
<rect width="176" height="196" rx="12" fill="#EDF2FE"/>
<g filter="url(#filter0_f_10964_7257)">
<ellipse cx="130" cy="41.6385" rx="96" ry="91.3876" fill="#F0FFF2"/>
</g>
<path d="M149.728 29.4687L149.162 34.6421L145.516 67.8591C144.314 74.1632 142.42 79.6617 139.678 84.2414C136.907 90.5173 124.596 100.666 110.942 107.38H103.775C103.662 107.31 103.563 107.239 103.45 107.168C100.482 105.218 97.5983 103.309 94.9551 101.458C90.9832 98.7155 87.5343 96.0723 84.9759 93.5422C84.3539 92.9344 83.7744 92.3124 83.2656 91.7046C82.163 90.4466 81.1595 89.1462 80.2548 87.7893C77.5692 83.7608 75.7599 79.3083 74.7705 74.4601C74.5726 71.308 74.4312 67.5764 74.3323 63.4066C74.1344 54.8267 74.1061 44.4234 74.1203 33.5254C85.0748 29.6949 96.6089 23.7865 108.496 16.6201C109.387 17.0866 110.291 17.5389 111.21 17.9629C117.613 20.9454 124.455 22.9101 131.706 24.366C134.391 24.9032 137.134 25.3837 139.932 25.8078C141.219 26.0057 142.519 26.2036 143.834 26.3873C143.862 26.3873 143.89 26.4015 143.918 26.4015C144.046 26.4297 144.159 26.4439 144.286 26.458L149.728 29.4687Z" fill="white"/>
<path d="M109.203 104.016L115.635 100.03C118.758 98.0934 121.769 95.8884 124.525 93.33C132.823 85.6265 138.773 76.6791 139.947 65.9507L143.791 30.9951" stroke="black" stroke-width="0.8" stroke-linecap="round" stroke-linejoin="round"/>
<path d="M144.287 26.4726C129.29 24.4937 118.165 20.5784 108.271 16.6206C98.1504 22.8117 87.3938 28.8897 74.1211 33.5259L74.3331 69.3437C74.3897 79.1533 78.7149 87.1113 85.3725 94.0374C87.6482 96.3979 90.2066 98.4333 92.9488 100.243L103.762 107.381" stroke="black" stroke-width="1.5" stroke-linecap="round" stroke-linejoin="round"/>
<path d="M96.6802 95.8467C92.7789 93.3024 89.2311 90.2917 86.3052 86.7014C81.6548 80.9909 79.4497 75.1674 79.4073 68.7501L79.1953 37.201C90.065 33.0878 99.3658 28.0416 107.96 22.9248C116.328 26.2606 125.869 29.5399 137.813 31.6319L134.053 65.8949C133.29 72.821 130.123 79.2665 124.286 85.6554C120.695 89.5849 116.554 92.8642 112.172 95.6205L104.101 100.695L96.6802 95.8608V95.8467Z" stroke="black" stroke-width="0.8" stroke-linecap="round" stroke-linejoin="round"/>
<path d="M124.071 74.4967L119.393 69.1113L108.622 56.715L111.378 54.1425L108.325 50.6653L112.905 46.2976L104.212 36.6011L99.8301 40.997L97.6816 38.5517L87.7448 48.644L89.7802 51.0611L87.236 53.6053L85.9355 54.9058L93.8228 64.4468L95.1798 63.1464L97.8371 60.6163L100.735 64.0652L103.124 61.8319L107.958 67.5282L103.661 71.4153L107.223 75.6982L111.605 71.8252L113.583 74.1575L108.424 78.6665L112.947 84.1084L124.156 74.6092L124.071 74.4967ZM104.353 51.4286L99.0527 56.5171L94.3741 51.0187L99.5333 45.9018L104.339 51.4286H104.353Z" fill="url(#paint0_linear_10964_7257)"/>
<path d="M103.775 107.379H110.956C110.956 107.379 122.744 101.513 131.621 93.7672C140.286 86.2192 144.597 76.3671 145.813 65.6387L149.883 29.4958L144.328 26.4854" stroke="black" stroke-width="1.5" stroke-linecap="round" stroke-linejoin="round"/>
</g>
<defs>
<filter id="filter0_f_10964_7257" x="-66" y="-149.749" width="392" height="382.775" filterUnits="userSpaceOnUse" color-interpolation-filters="sRGB">
<feFlood flood-opacity="0" result="BackgroundImageFix"/>
<feBlend mode="normal" in="SourceGraphic" in2="BackgroundImageFix" result="shape"/>
<feGaussianBlur stdDeviation="50" result="effect1_foregroundBlur_10964_7257"/>
</filter>
<linearGradient id="paint0_linear_10964_7257" x1="91.2081" y1="0.66398" x2="115.652" y2="93.5779" gradientUnits="userSpaceOnUse">
<stop stop-color="#76E4BB" stop-opacity="0"/>
<stop offset="0.469603" stop-color="#76E4BB" stop-opacity="0.716841"/>
<stop offset="1" stop-color="#76E4BB"/>
</linearGradient>
<clipPath id="clip0_10964_7257">
<rect width="176" height="196" rx="12" fill="white"/>
</clipPath>
</defs>
</svg>
