<svg width="40" height="40" viewBox="0 0 40 40" fill="none" xmlns="http://www.w3.org/2000/svg">
<g clip-path="url(#clip0_5900_6290)">
<rect width="40" height="40" rx="12" fill="white"/>
<path d="M-3.20612 -4.09376H43.3558V44.4876H-3.20612V-4.09376Z" fill="#86909C"/>
<g clip-path="url(#clip1_5900_6290)">
<path fill-rule="evenodd" clip-rule="evenodd" d="M14.5146 31.4294C14.3778 31.3326 14.1894 31.3588 14.0748 31.4811C12.5428 33.1151 8.62204 34.2612 8.44245 32.0311C8.44245 30.2838 8.04999 28.8114 7.61789 27.1902C7.08868 25.2047 6.5 22.9961 6.5 19.7861C6.5 12.1315 12.7777 6.37495 20.2209 6.37495C27.6642 6.37495 33.5 12.4126 33.5 19.8604C33.5 27.3083 27.4784 33.1973 20.2914 33.1973C17.7416 33.1973 16.5042 32.8381 14.5146 31.4294ZM20.4297 13.0118C16.8974 12.8266 14.1409 15.2777 13.533 19.114C13.0297 22.2909 13.9221 26.1621 14.6855 26.3569C15.0093 26.4396 15.7885 25.8436 16.3553 25.309C16.4619 25.2085 16.6231 25.1916 16.748 25.268C17.6317 25.8084 18.6322 26.2145 19.7352 26.2723C23.3615 26.4625 26.5751 23.6243 26.7651 19.9977C26.955 16.371 24.0561 13.202 20.4297 13.0118Z" fill="white"/>
</g>
</g>
<defs>
<clipPath id="clip0_5900_6290">
<rect width="40" height="40" rx="12" fill="white"/>
</clipPath>
<clipPath id="clip1_5900_6290">
<rect width="27" height="27" fill="white" transform="translate(6.5 6.5)"/>
</clipPath>
</defs>
</svg>
