<svg width="176" height="196" viewBox="0 0 176 196" fill="none" xmlns="http://www.w3.org/2000/svg">
<g clip-path="url(#clip0_3164_5414)">
<rect width="176" height="196" rx="12" fill="#EDF2FE"/>
<g filter="url(#filter0_f_3164_5414)">
<ellipse cx="130" cy="41.3876" rx="96" ry="91.3876" fill="#D1F4FF"/>
</g>
<path d="M91.7978 94.6808C96.6077 99.8545 103.902 102.53 113.771 102.53C130.584 102.53 145.094 89.249 145.094 68.1613C145.094 60.7942 143.821 54.6094 143.089 50.4719C141.869 43.5694 142.713 36.9666 143.598 30.3411C143.993 27.3835 141.561 25.6308 138.491 27.2941C136.344 28.4562 129.865 32.4098 129.865 32.4098C129.865 32.4098 120.795 26.8841 114.379 26.1713C107.964 25.4585 101.671 25.8631 99.5327 26.861C97.9645 27.7163 95.9211 28.7618 94.996 27.4804C94.1033 26.1634 91.2161 25.5023 90.2239 27.7574C89.2317 30.0125 86.6455 43.1917 86.2854 48.4485C84.8223 48.9647 81.6984 51.8267 80.977 54.2014C80.768 54.8889 79.9395 61.9173 79.9395 61.9173V74.5979H81.6317C81.6317 74.5979 81.2086 82.106 82.1971 84.278C80.4532 92.3439 85.9492 95.2008 88.6777 95.0648L91.7991 94.6796L91.7978 94.6808Z" fill="white"/>
<path d="M82.0479 82.6973C79.957 92.724 85.8284 96.6705 91.4076 94.9304" stroke="black" stroke-linecap="round" stroke-linejoin="round"/>
<path d="M86.2871 84.4369C88.6782 95.2993 98.6731 102.53 113.771 102.53C130.584 102.53 145.094 89.2493 145.094 68.1615C145.094 60.7944 143.821 54.6097 143.09 50.4722C141.87 43.5697 142.713 36.9669 143.598 30.3414C143.994 27.3837 141.561 25.631 138.491 27.2943C136.345 28.4565 130.028 32.5451 130.028 32.5451C130.028 32.5451 121.355 25.4836 107.004 25.4836C99.1407 25.212 94.8142 28.8541 94.975 31.8024C95.1359 34.7506 98.046 35.795 99.9146 35.795" stroke="black" stroke-width="1.6" stroke-linecap="round" stroke-linejoin="round"/>
<path d="M96.5221 50.2489C92.3759 47.7924 81.8554 46.678 81.1426 53.996" stroke="black" stroke-width="1.6" stroke-linecap="round" stroke-linejoin="round"/>
<path d="M86.3906 47.6896C87.1587 40.5239 89.3118 30.0317 90.1012 27.8119C90.9159 25.519 93.419 25.4724 94.4515 26.7567C95.353 27.8786 95.638 28.477 95.9231 28.8096" stroke="black" stroke-width="1.6" stroke-linecap="round" stroke-linejoin="round"/>
<path d="M140.693 71.5396C146.323 73.7921 149.138 78.7556 149.752 81.367C150.367 83.9771 148.523 86.3317 146.835 86.7925C148.473 89.7615 145.095 94.1118 141.665 93.1901C141.051 95.8002 135.625 96.9259 131.582 92.4737" fill="white"/>
<path d="M140.693 71.5396C146.323 73.7921 149.138 78.7556 149.752 81.367C150.367 83.9771 148.523 86.3317 146.835 86.7925C148.473 89.7615 145.095 94.1118 141.665 93.1901C141.051 95.8002 135.625 96.9259 131.582 92.4737" stroke="black" stroke-width="1.6" stroke-linecap="round" stroke-linejoin="round"/>
<path d="M110.238 46.0015C115.996 44.7223 122.522 47.4344 125.029 50.2498" stroke="black" stroke-width="1.6" stroke-linecap="round" stroke-linejoin="round"/>
<path d="M100.222 35.8306C98.3455 37.7595 99.5341 40.993 102.698 40.8519" stroke="black" stroke-linecap="round" stroke-linejoin="round"/>
<path d="M126.52 35.6104C127.669 34.6031 129.975 32.9751 129.975 32.9751" stroke="black" stroke-linecap="round" stroke-linejoin="round"/>
<path d="M100.826 81.98C101.293 83.5111 102.492 84.9805 105.955 84.9805" stroke="black" stroke-linecap="round" stroke-linejoin="round"/>
<path d="M91.3262 72.1021C93.5709 72.1021 95.3906 69.3754 95.3906 66.0117C95.3906 62.6481 93.5709 59.9214 91.3262 59.9214C89.0814 59.9214 87.2617 62.6481 87.2617 66.0117C87.2617 69.3754 89.0814 72.1021 91.3262 72.1021Z" fill="black"/>
<path d="M112.262 72.1021C114.506 72.1021 116.326 69.3754 116.326 66.0117C116.326 62.6481 114.506 59.9214 112.262 59.9214C110.017 59.9214 108.197 62.6481 108.197 66.0117C108.197 69.3754 110.017 72.1021 112.262 72.1021Z" fill="black"/>
<path d="M144.777 85.0645C145.238 85.4611 145.929 86.0755 146.389 86.6384" stroke="black" stroke-linecap="round" stroke-linejoin="round"/>
<path d="M140.121 91.5571C140.535 92.0054 140.879 92.339 141.427 92.7357" stroke="black" stroke-linecap="round" stroke-linejoin="round"/>
<path d="M109.696 74.5986L123.791 74.5986V82.3145L111.469 82.3145C111.469 78.143 111.036 76.6787 109.697 74.5986H109.696ZM123.791 54.2034L105.045 54.2034V61.9193L123.791 61.9193V74.5999H131.506V61.9193H151.774V54.2034H123.791ZM97.3302 74.5986H79.9417V82.3145H97.0909L97.8489 74.5986H99.2465C101.757 71.748 105.046 71.8991 105.046 71.8991V61.9193H97.3302V74.5999V74.5986ZM97.3302 61.918V54.2021L72.2246 54.2021V74.5974H79.9405V61.9168L97.3289 61.9168L97.3302 61.918Z" fill="url(#paint0_linear_3164_5414)"/>
<path d="M101.283 72.1025C98.8778 73.1262 95.7552 77.2725 97.3417 83.5102C98.8766 82.0307 101.181 80.6494 103.484 80.6494C105.787 80.6494 107.68 80.1886 107.527 78.0909" stroke="black" stroke-linecap="round" stroke-linejoin="round"/>
</g>
<defs>
<filter id="filter0_f_3164_5414" x="-66" y="-150" width="392" height="382.775" filterUnits="userSpaceOnUse" color-interpolation-filters="sRGB">
<feFlood flood-opacity="0" result="BackgroundImageFix"/>
<feBlend mode="normal" in="SourceGraphic" in2="BackgroundImageFix" result="shape"/>
<feGaussianBlur stdDeviation="50" result="effect1_foregroundBlur_3164_5414"/>
</filter>
<linearGradient id="paint0_linear_3164_5414" x1="122.922" y1="93.2473" x2="113.907" y2="58.1873" gradientUnits="userSpaceOnUse">
<stop stop-color="#6BCAFF" stop-opacity="0.5"/>
<stop offset="1" stop-color="#6BCAFF"/>
</linearGradient>
<clipPath id="clip0_3164_5414">
<rect width="176" height="196" rx="12" fill="white"/>
</clipPath>
</defs>
</svg>
