<svg width="176" height="160" viewBox="0 0 176 160" fill="none" xmlns="http://www.w3.org/2000/svg">
<g clip-path="url(#clip0_3156_1011)">
<rect width="176" height="160" rx="12" fill="#EDF2FE"/>
<g filter="url(#filter0_f_3156_1011)">
<ellipse cx="123.875" cy="38.5007" rx="71.875" ry="71.5007" fill="#D1F4FF"/>
</g>
<path d="M118.29 64.9893C121.55 68.4993 126.51 70.3193 133.21 70.3193C144.62 70.3193 154.47 61.2993 154.47 46.9893C154.47 41.9893 153.61 37.7893 153.11 34.9793C152.28 30.2893 152.85 25.8093 153.46 21.3093C153.73 19.2993 152.08 18.1093 149.99 19.2393C148.53 20.0293 144.13 22.7093 144.13 22.7093C144.13 22.7093 137.97 18.9593 133.62 18.4793C129.27 17.9993 124.99 18.2693 123.54 18.9493C122.48 19.5293 121.09 20.2393 120.46 19.3693C119.85 18.4793 117.89 18.0293 117.22 19.5593C116.55 21.0893 114.79 30.0393 114.55 33.6093C113.56 33.9593 111.44 35.8993 110.95 37.5193C110.81 37.9893 110.25 42.7593 110.25 42.7593V51.3693H111.4C111.4 51.3693 111.11 56.4693 111.78 57.9393C110.5 62.5 113.5 65.5 116.5 65.5L118.3 64.9993H118.29V64.9893Z" fill="white"/>
<path d="M111.661 56.8594C110.241 63.6694 114.231 66.3494 118.011 65.1594" stroke="black" stroke-width="0.8" stroke-linecap="round" stroke-linejoin="round"/>
<path d="M114.551 58.0393C116.171 65.4093 122.961 70.3193 133.211 70.3193C144.621 70.3193 154.471 61.2993 154.471 46.9893C154.471 41.9893 153.611 37.7893 153.111 34.9793C152.281 30.2893 152.851 25.8093 153.461 21.3093C153.731 19.2993 152.081 18.1093 149.991 19.2393C148.531 20.0293 144.251 22.7993 144.251 22.7993C144.251 22.7993 138.361 18.0093 128.621 18.0093C123.281 17.8293 120.351 20.2993 120.451 22.2993C120.561 24.2993 122.531 25.0093 123.801 25.0093" stroke="black" stroke-width="1.5" stroke-linecap="round" stroke-linejoin="round"/>
<path d="M121.491 34.8286C118.681 33.1586 111.531 32.4086 111.051 37.3686" stroke="black" stroke-width="1.5" stroke-linecap="round" stroke-linejoin="round"/>
<path d="M114.609 33.0889C115.129 28.2289 116.589 21.0989 117.129 19.5989C117.679 18.0389 119.379 18.0089 120.079 18.8789C120.689 19.6389 120.889 20.0489 121.079 20.2689" stroke="black" stroke-width="1.5" stroke-linecap="round" stroke-linejoin="round"/>
<path d="M151.481 49.2793C155.301 50.8093 157.211 54.1793 157.631 55.9493C158.051 57.7193 156.801 59.3193 155.651 59.6293C156.761 61.6493 154.471 64.5993 152.141 63.9693C151.721 65.7393 148.041 66.5093 145.301 63.4793" fill="white"/>
<path d="M151.481 49.2793C155.301 50.8093 157.211 54.1793 157.631 55.9493C158.051 57.7193 156.801 59.3193 155.651 59.6293C156.761 61.6493 154.471 64.5993 152.141 63.9693C151.721 65.7393 148.041 66.5093 145.301 63.4793" stroke="black" stroke-width="1.5" stroke-linecap="round" stroke-linejoin="round"/>
<path d="M130.801 31.9495C134.711 31.0795 139.141 32.9195 140.841 34.8295" stroke="black" stroke-width="1.5" stroke-linecap="round" stroke-linejoin="round"/>
<path d="M124.091 25.0391C122.821 26.3491 123.621 28.5391 125.771 28.4491" stroke="black" stroke-width="0.8" stroke-linecap="round" stroke-linejoin="round"/>
<path d="M142.012 24.9287C142.792 24.2487 144.362 23.1387 144.362 23.1387" stroke="black" stroke-width="0.8" stroke-linecap="round" stroke-linejoin="round"/>
<path d="M124.41 56.3691C124.73 57.4091 125.54 58.4091 127.89 58.4091" stroke="black" stroke-width="0.8" stroke-linecap="round" stroke-linejoin="round"/>
<path d="M117.971 49.6594C119.491 49.6594 120.731 47.8094 120.731 45.5294C120.731 43.2494 119.491 41.3994 117.971 41.3994C116.451 41.3994 115.211 43.2494 115.211 45.5294C115.211 47.8094 116.451 49.6594 117.971 49.6594Z" fill="black"/>
<path d="M132.182 49.6594C133.702 49.6594 134.942 47.8094 134.942 45.5294C134.942 43.2494 133.702 41.3994 132.182 41.3994C130.662 41.3994 129.422 43.2494 129.422 45.5294C129.422 47.8094 130.662 49.6594 132.182 49.6594Z" fill="black"/>
<path d="M154.422 58.5889C154.692 58.8989 155.102 59.3789 155.362 59.7989" stroke="black" stroke-width="0.8" stroke-linecap="round" stroke-linejoin="round"/>
<path d="M151.219 62.9395C151.529 63.2095 151.789 63.4095 152.189 63.6395" stroke="black" stroke-width="0.8" stroke-linecap="round" stroke-linejoin="round"/>
<path d="M130.44 51.3588H140.01V56.5988H131.65C131.65 53.7688 131.36 52.7688 130.45 51.3588H130.44ZM140.01 37.5188H127.28V42.7588H140.01V51.3688H145.25V42.7588H159.01V37.5188H140.01ZM122.05 51.3588H110.24V56.5988H121.88L122.39 51.3588L123.31 51.1988C124.96 49.2188 127.27 49.4988 127.27 49.4988V42.7588H122.03V51.3688H122.05V51.3588ZM122.05 42.7488V37.5088H105V51.3488H110.24V42.7388H122.05V42.7488Z" fill="url(#paint0_linear_3156_1011)"/>
<path d="M124.72 49.6689C123.09 50.3589 120.97 53.1789 122.04 57.4089C123.08 56.4089 124.65 55.4689 126.21 55.4689C127.77 55.4689 129.06 55.1589 128.95 53.7289" stroke="black" stroke-width="0.8" stroke-linecap="round" stroke-linejoin="round"/>
</g>
<defs>
<filter id="filter0_f_3156_1011" x="-7.89583" y="-92.8958" width="263.542" height="262.793" filterUnits="userSpaceOnUse" color-interpolation-filters="sRGB">
<feFlood flood-opacity="0" result="BackgroundImageFix"/>
<feBlend mode="normal" in="SourceGraphic" in2="BackgroundImageFix" result="shape"/>
<feGaussianBlur stdDeviation="29.9479" result="effect1_foregroundBlur_3156_1011"/>
</filter>
<linearGradient id="paint0_linear_3156_1011" x1="137.19" y1="64.5888" x2="131.07" y2="40.7888" gradientUnits="userSpaceOnUse">
<stop stop-color="#6BCAFF" stop-opacity="0.5"/>
<stop offset="1" stop-color="#6BCAFF"/>
</linearGradient>
<clipPath id="clip0_3156_1011">
<rect width="176" height="160" rx="12" fill="white"/>
</clipPath>
</defs>
</svg>
