<svg width="64" height="64" viewBox="0 0 64 64" fill="none" xmlns="http://www.w3.org/2000/svg">
<path d="M2.14258 22H61.8572C61.1531 16.5984 57.885 11.8058 52.9999 9.20039L40.4705 2.51804C35.1764 -0.305491 28.8234 -0.305492 23.5293 2.51804L10.9999 9.20039C6.11482 11.8058 2.84671 16.5984 2.14258 22Z" fill="white"/>
<path d="M2.30273 43C3.25846 47.9894 6.41776 52.3569 10.9994 54.8004L23.5288 61.4827C28.8229 64.3063 35.1759 64.3063 40.47 61.4827L52.9994 54.8004C57.581 52.3569 60.7403 47.9894 61.696 43H2.30273Z" fill="#EE3B57"/>
<path d="M2 24.2008C2 23.459 2.04832 22.7243 2.14267 22.0005H61.8572C61.1531 16.5989 57.885 11.8062 52.9999 9.20084C58.5396 12.1553 62 17.9225 62 24.2008V39.8008C62 46.0791 58.5397 51.8464 53 54.8008C57.5816 52.3573 60.7408 47.9898 61.6965 43.0005H2.30335C2.1035 41.9571 2 40.8866 2 39.8008V24.2008Z" fill="#1965B1"/>
<path opacity="0.1" d="M60.5327 17.2913L7.51318 52.3333C4.04736 49.1565 2 44.6301 2 39.801V24.2004C2 17.9221 5.46045 12.1555 11 9.20044L23.5293 2.51782C28.8237 -0.30542 35.1763 -0.30542 40.4707 2.51782L53 9.20044C56.4014 11.0149 59.019 13.8889 60.5327 17.2913Z" fill="white"/>
<path fill-rule="evenodd" clip-rule="evenodd" d="M61.25 39.8004V24.2004C61.25 18.1991 57.9423 12.6863 52.6471 9.86215L40.1176 3.1798C35.0441 0.47392 28.9559 0.47392 23.8824 3.1798L11.3529 9.86215C6.05766 12.6863 2.75 18.1991 2.75 24.2004V39.8004C2.75 45.8017 6.05766 51.3145 11.3529 54.1386L23.8824 60.821C28.9559 63.5269 35.0441 63.5269 40.1176 60.821L52.6471 54.1386C57.9423 51.3145 61.25 45.8017 61.25 39.8004ZM11 9.20039C5.46032 12.1549 2 17.9221 2 24.2004V39.8004C2 46.0787 5.46032 51.8459 11 54.8004L23.5294 61.4827C28.8235 64.3063 35.1765 64.3063 40.4706 61.4827L53 54.8004C58.5397 51.8459 62 46.0787 62 39.8004V24.2004C62 17.9221 58.5397 12.1549 53 9.20039L40.4706 2.51804C35.1765 -0.305491 28.8235 -0.305492 23.5294 2.51804L11 9.20039Z" fill="#86909C"/>
</svg>
