<svg width="176" height="196" fill="none" xmlns="http://www.w3.org/2000/svg">
  <g clip-path="url(#a)">
    <rect width="176" height="196" rx="12" fill="#EDF2FE"/>
    <g filter="url(#b)">
      <ellipse cx="130" cy="41.4" rx="96" ry="91.4" fill="#FCEDEF"/>
    </g>
    <g clip-path="url(#c)">
      <path d="M116 107c19-1 33-16 32-34-1-19-17-32-36-31-18 1-33 16-31 34 1 18 16 32 35 31Z" fill="#fff"/>
      <path d="m97 17 6 11s-5 0-5 6c0 0 0 5 5 5v5l21-1v-4s5 0 5-6c0 0 1-6-5-6h-1l4-11h-16l-14 1Z" fill="url(#d)"/>
      <path d="m131 65-1 3h-2v2h-3v3l-2-1-1 3h-2v3h2v5h2v8h-5v-3h-5v-3h-9l-1 2h-4l-1 3-4-1v-7h3v-5h2l1-3h-3v-2h-2v-3h-2v-2h-2v-3h12v-2h2l1-5h2v-5h5v5h2v5h2v3h13Z" fill="url(#e)"/>
      <path d="M110 42h2a34 34 0 0 1 28 11c4 6 7 12 8 20 1 18-14 33-32 34-19 1-35-13-36-31 0-6 2-13 5-18" stroke="#000" stroke-width="1.5" stroke-linecap="round" stroke-linejoin="round"/>
      <path d="M92 50c3-3 7-5 12-6" stroke="#000" stroke-width="1.3" stroke-linecap="round" stroke-linejoin="round"/>
      <path d="M128 48c8 6 13 15 13 25 1 10-3 19-9 25M90 89a28 28 0 0 1-3-22" stroke="#000" stroke-width=".9" stroke-linecap="round" stroke-linejoin="round"/>
      <path d="m134 63 2 10c1 15-10 28-24 28-3 1-7 0-10-2" stroke="#000" stroke-width=".9" stroke-linecap="round" stroke-linejoin="round"/>
      <path d="M124 43v-4h0c3 0 5-3 5-5v-3c0-2-3-5-5-4h-6M102 28c-2 0-4 3-4 5v2c0 2 3 4 5 4v4" stroke="#000" stroke-width="1.5" stroke-linecap="round" stroke-linejoin="round"/>
      <path d="M121 40v-3l2-1c2 0 3-1 3-2v-2M104 34l17-1" stroke="#000" stroke-width=".9" stroke-linecap="round" stroke-linejoin="round"/>
      <path d="m105 33-8-16M120 32l-5-11" stroke="#000" stroke-width="1.5" stroke-linecap="round" stroke-linejoin="round"/>
      <path d="m123 27 1-4" stroke="#000" stroke-width=".9" stroke-linecap="round" stroke-linejoin="round"/>
    </g>
  </g>
  <defs>
    <linearGradient id="d" x1="108.7" y1="16" x2="114.3" y2="43.7" gradientUnits="userSpaceOnUse">
      <stop stop-color="#fff" stop-opacity="0"/>
      <stop offset=".5" stop-color="#fff" stop-opacity=".8"/>
      <stop offset=".7" stop-color="#fff"/>
      <stop offset=".7" stop-color="#fff"/>
      <stop offset=".7" stop-color="#fff"/>
      <stop offset="1" stop-color="#fff"/>
    </linearGradient>
    <linearGradient id="e" x1="90" y1="42.4" x2="121.6" y2="91.7" gradientUnits="userSpaceOnUse">
      <stop offset=".1" stop-color="#FFDDC0"/>
      <stop offset="1" stop-color="#FFC28F"/>
    </linearGradient>
    <clipPath id="a">
      <rect width="176" height="196" rx="12" fill="#fff"/>
    </clipPath>
    <clipPath id="c">
      <path fill="#fff" transform="translate(64 16)" d="M0 0h96v96H0z"/>
    </clipPath>
    <filter id="b" x="-66" y="-150" width="392" height="382.8" filterUnits="userSpaceOnUse" color-interpolation-filters="sRGB">
      <feFlood flood-opacity="0" result="BackgroundImageFix"/>
      <feBlend in="SourceGraphic" in2="BackgroundImageFix" result="shape"/>
      <feGaussianBlur stdDeviation="50" result="effect1_foregroundBlur_8091_403"/>
    </filter>
  </defs>
</svg>
