<svg width="36" height="36" viewBox="0 0 36 36" fill="none" xmlns="http://www.w3.org/2000/svg">
  <g clip-path="url(#clip0_9077_8972)">
    <rect width="36" height="36" rx="18" transform="matrix(-1 0 0 1 36 0)" fill="#E4ECFD"/>
    <g clip-path="url(#clip1_9077_8972)">
      <path d="M27.6742 39.2663C27.737 39.056 27.9301 35.89 27.9803 35.3033C28.0431 34.5911 28.0807 33.8412 28.2658 29.6713C28.3066 28.7677 28.3066 28.7614 28.4541 28.5323C28.7114 28.1401 28.7584 27.9142 29.022 25.8622C29.1569 24.8206 29.546 23.2204 29.9758 21.9591C30.2425 21.1684 30.2959 20.9205 30.208 20.8327C30.1641 20.7856 30.1453 20.6821 30.117 20.2742C30.0135 18.7368 29.7719 16.4557 29.6307 15.6933C29.1004 12.8192 27.4783 10.2621 25.0184 8.42973C23.2865 7.14018 21.2031 6.31813 18.9942 6.05771C18.4106 5.98868 16.9234 5.97927 16.3743 6.04202C14.1215 6.29617 12.0194 7.11822 10.278 8.4266C9.65046 8.8941 9.29905 9.20472 8.74997 9.76949C7.01488 11.5454 5.93241 13.7386 5.58413 16.1796C5.48059 16.9044 5.39588 18.6081 5.39274 19.9604C5.39274 20.7636 5.38646 20.9142 5.34254 20.9739C5.29861 21.0398 5.29861 21.0429 5.37705 21.0429C5.43039 21.0429 5.5151 20.9958 5.60296 20.9174C5.85083 20.6978 6.51286 20.5691 7.28471 20.5064C8.58368 20.3997 10.4035 20.7856 11.7307 21.4508C12.7002 21.934 13.4877 22.4925 14.2 23.2016C15.2448 24.237 15.8598 25.2504 16.8293 27.5377C17.1462 28.2845 17.3062 28.5355 17.6827 28.8712C17.871 29.0375 17.8647 29.0218 18.0059 29.9223C18.2977 31.7892 18.4232 33.747 18.3573 35.2719C18.3353 35.7363 18.2977 36.3167 18.2726 36.5583C18.2475 36.7999 18.2161 38.8816 18.2067 38.9914L18.1847 39.1859H22.8347C26.6782 39.1859 27.6617 39.2945 27.6742 39.2663Z" fill="#1077DF"/>
      <mask id="mask0_9077_8972" style="mask-type:alpha" maskUnits="userSpaceOnUse" x="5" y="6" width="26" height="34">
        <path d="M27.6742 39.6255C27.737 39.4153 27.9301 35.89 27.9803 35.3033C28.0431 34.591 28.0807 33.8412 28.2658 29.6713C28.3066 28.7677 28.3066 28.7614 28.4541 28.5323C28.7114 28.1401 28.7584 27.9142 29.022 25.8622C29.1569 24.8206 29.546 23.2204 29.9758 21.9591C30.2425 21.1684 30.2959 20.9205 30.208 20.8327C30.1641 20.7856 30.1453 20.6821 30.117 20.2742C30.0135 18.7368 29.7719 16.4557 29.6307 15.6933C29.1004 12.8192 27.4783 10.2621 25.0184 8.42973C23.2865 7.14018 21.2031 6.31813 18.9942 6.05771C18.4106 5.98868 16.9234 5.97927 16.3743 6.04202C14.1215 6.29617 12.0194 7.11822 10.278 8.4266C9.65046 8.8941 9.29905 9.20472 8.74997 9.76949C7.01488 11.5454 5.93241 13.7386 5.58413 16.1796C5.48059 16.9044 5.39588 18.6081 5.39274 19.9604C5.39274 20.7636 5.38646 20.9142 5.34254 20.9739C5.29861 21.0398 5.29861 21.0429 5.37705 21.0429C5.43039 21.0429 5.5151 20.9958 5.60296 20.9174C5.85083 20.6978 6.51286 20.5691 7.28471 20.5064C8.58368 20.3997 10.4035 20.7856 11.7307 21.4508C12.7002 21.934 13.4877 22.4925 14.2 23.2016C15.2448 24.237 15.8598 25.2504 16.8293 27.5377C17.1462 28.2845 17.3062 28.5355 17.6827 28.8712C17.871 29.0375 17.8647 29.0218 18.0059 29.9223C18.2977 31.7892 18.4232 33.747 18.3573 35.2719C18.3353 35.7363 18.2977 36.3167 18.2726 36.5583C18.2475 36.7999 18.2161 39.2408 18.2067 39.3506L18.1847 39.5451H22.8347C26.6782 39.5451 27.6617 39.6537 27.6742 39.6255Z" fill="#1077DF"/>
      </mask>
      <g mask="url(#mask0_9077_8972)">
        <path d="M27.9803 35.1151C27.9301 35.7018 27.737 39.9455 27.6742 40.1557C27.6617 40.1839 26.6782 40.0753 22.8347 40.0753H18.1847L5.34254 37.2016L5.39274 21C5.39274 21 5.29861 20.8515 5.34254 20.7856C5.38647 20.726 5.39274 20.5754 5.39274 19.7722C5.39588 18.4199 5.48059 16.7162 5.58413 15.9914C5.93241 13.5503 7.01488 11.3571 8.74997 9.58126C9.29905 9.01649 9.65047 8.70587 10.278 8.23836C12.0194 6.92998 14.1215 6.10793 16.3743 5.85379C16.9234 5.79104 18.4106 5.80045 18.9942 5.86948C21.2031 6.1299 23.2865 6.95195 25.0184 8.2415C27.4783 10.0739 29.1004 12.631 29.6307 15.505C29.7719 16.2675 30.0135 18.5485 30.117 20.0859C30.1453 20.4938 30.1641 20.5974 30.208 20.6444C30.2959 20.7323 30.2425 20.9802 29.9758 21.7708C29.546 23.0322 29.1569 24.6323 29.022 25.674C28.7585 27.726 28.7114 27.9519 28.4541 28.3441C28.3069 28.5727 28.3066 28.5794 28.2661 29.4775L28.2658 29.4831C28.0807 33.6529 28.0431 34.4028 27.9803 35.1151Z" fill="#9AD3FF"/>
        <g filter="url(#filter0_f_9077_8972)">
          <path d="M28.6152 37.5608C28.5666 38.1043 28.3794 39.3734 28.3186 39.5681C28.3065 39.5942 27.3535 39.4937 23.6294 39.4937H19.1239H6.68064L6.71408 20.0608C6.63807 20.0608 6.63807 20.0578 6.68064 19.9968C6.7232 19.9416 6.72928 19.8021 6.72928 19.058C6.73232 17.8053 6.8144 16.227 6.91472 15.5556C7.25218 13.2943 8.30103 11.2626 9.98222 9.61752C10.5142 9.09434 10.8547 8.80659 11.4628 8.37351C13.15 7.16148 15.1869 6.39997 17.3697 6.16454C17.9018 6.10641 19.3428 6.11512 19.9083 6.17907C22.0485 6.42031 24.0672 7.18183 25.7453 8.37642C28.1288 10.0738 29.7005 12.4427 30.2143 15.1051C30.3511 15.8114 30.5852 17.9244 30.6855 19.3487C30.7129 19.7265 30.7311 19.8224 30.7737 19.866C30.8588 19.9474 30.8071 20.177 30.5487 20.9095C30.1322 22.0779 29.7552 23.5602 29.6245 24.5252C29.3691 26.4261 29.3235 26.6354 29.0743 26.9987C28.9317 27.2104 28.9314 27.2167 28.8921 28.0486L28.8918 28.0538C28.7125 31.9166 28.676 36.901 28.6152 37.5608Z" fill="url(#paint0_linear_9077_8972)"/>
        </g>
        <g filter="url(#filter1_f_9077_8972)">
          <path d="M7.35743 15.9255C6.17917 17.806 6.60533 22.6527 6.52643 24.8884V25.4839H9.91504L9.22477 14.1703C9.09326 13.9718 8.53569 14.045 7.35743 15.9255Z" fill="url(#paint1_linear_9077_8972)" fill-opacity="0.7"/>
        </g>
        <g filter="url(#filter2_f_9077_8972)">
          <path d="M7.18052 15.4185C6.26762 17.2939 6.5978 22.1276 6.53667 24.3572V24.9511L13.0527 21.0291C13.0527 21.0291 9.96664 19.8128 9.19349 18.268C8.42033 16.7233 8.6273 13.6681 8.6273 13.6681C8.52541 13.4701 8.09342 13.543 7.18052 15.4185Z" fill="url(#paint2_linear_9077_8972)" fill-opacity="0.6"/>
        </g>
        <g filter="url(#filter3_f_9077_8972)">
          <path d="M26.4963 33.9186C26.3 35.95 24.3493 36.6098 23.3985 36.6857C17.663 36.6857 18.0004 28.962 18.0004 27.5947C18.0004 26.2274 17.4314 25.0525 17.278 24.3037C17.1247 23.5549 16.3135 21.0104 15.3013 18.4711C14.2892 15.9318 14.6944 13.269 15.3013 12.3999C15.9082 11.5307 17.5128 10.6337 18.7978 10.1861C20.0829 9.73854 23.8586 9.27459 25.9442 13.0509C27.6128 16.072 27.6005 20.8424 27.3858 22.8499C27.1711 25.6931 26.6926 31.8872 26.4963 33.9186Z" fill="url(#paint3_linear_9077_8972)"/>
        </g>
        <g filter="url(#filter4_f_9077_8972)">
          <path d="M18.5745 34.3505C23.783 39.0077 27.2029 36.1912 28.3952 33.6916L35.5176 39.6531L30.7484 40.6885L12.9582 39.6531C12.7491 35.6055 13.0515 29.412 18.5745 34.3505Z" fill="#002E98"/>
        </g>
        <g filter="url(#filter5_f_9077_8972)">
          <path d="M26.6546 34.787C26.4928 36.2927 26.2653 37.6652 26.1718 38.1632L27.7705 38.231L29.718 27.4187L30.4294 23.0588L30.394 22.3844C30.2738 22.2511 29.8832 21.818 29.4586 21.4475C28.3722 24.2213 27.8189 27.7868 27.7405 28.168C27.6622 28.5492 27.4559 28.9891 27.2887 29.2383C27.155 29.4377 27.132 29.7444 27.1373 29.8728C27.002 30.8818 26.8164 33.2814 26.6546 34.787Z" fill="url(#paint4_linear_9077_8972)" fill-opacity="0.4"/>
        </g>
        <g filter="url(#filter6_f_9077_8972)">
          <path d="M27.6412 33.8197C27.5121 35.3286 27.3143 38.2119 27.2316 38.712L28.8315 38.7436L30.544 26.3839L31.1606 22.0091L31.1107 21.3357C30.9876 21.2051 30.5877 20.7809 30.1552 20.4201C29.1292 23.2178 28.6533 26.7948 28.5833 27.1777C28.5132 27.5606 28.3165 28.005 28.1548 28.258C28.0254 28.4604 28.0091 28.7675 28.0171 28.8957C27.9038 29.9075 27.7702 32.3108 27.6412 33.8197Z" fill="url(#paint5_linear_9077_8972)"/>
        </g>
        <g filter="url(#filter7_f_9077_8972)">
          <path d="M27.3277 34.3846C27.1986 35.8935 27.0009 37.2708 26.9181 37.7708L28.518 37.8025L30.2305 26.9488L30.8472 22.574L30.7972 21.9005C30.6741 21.77 30.2742 21.3458 29.8417 20.985C28.8158 23.7827 28.3398 27.3597 28.2698 27.7426C28.1998 28.1255 28.003 28.5699 27.8413 28.8229C27.7119 29.0253 27.6956 29.3324 27.7037 29.4606C27.5903 30.4724 27.4568 32.8757 27.3277 34.3846Z" fill="url(#paint6_linear_9077_8972)" fill-opacity="0.3"/>
        </g>
        <g filter="url(#filter8_f_9077_8972)">
          <circle cx="2.07082" cy="2.07082" r="2.07082" transform="matrix(-1 0 0 1 25.3516 31.4774)" fill="#24B3F0" fill-opacity="0.8"/>
        </g>
      </g>
      <path d="M24.6311 34.5804C25.0359 34.3137 25.4061 34.0532 25.4532 33.9999L25.4706 33.9819C25.5158 33.9351 25.541 33.8726 25.541 33.8075V32.8923C25.541 31.9699 25.5347 31.8695 25.4845 31.813C25.4218 31.7377 24.0695 30.8749 23.944 30.8247C23.8969 30.809 23.8216 30.8027 23.7808 30.8121C23.7369 30.8247 23.4074 31.0192 23.0435 31.2451C22.6827 31.4741 22.3156 31.7032 22.2246 31.7565C21.9579 31.9165 21.9642 31.882 21.9642 33.0084C21.9642 33.9905 21.9642 33.9999 22.0332 34.0783C22.074 34.1223 22.4097 34.3325 22.7799 34.5458C23.6177 35.029 23.6961 35.0698 23.8059 35.0698C23.8655 35.0698 24.1228 34.9161 24.6311 34.5804Z" fill="url(#paint7_linear_9077_8972)"/>
      <mask id="mask1_9077_8972" style="mask-type:alpha" maskUnits="userSpaceOnUse" x="21" y="30" width="5" height="6">
        <path d="M24.6311 34.5804C25.0359 34.3137 25.4061 34.0532 25.4532 33.9999L25.4706 33.9819C25.5158 33.9351 25.541 33.8726 25.541 33.8075V32.8923C25.541 31.9699 25.5347 31.8695 25.4845 31.813C25.4218 31.7377 24.0695 30.8749 23.944 30.8247C23.8969 30.809 23.8216 30.8027 23.7808 30.8121C23.7369 30.8247 23.4074 31.0192 23.0435 31.2451C22.6827 31.4741 22.3156 31.7032 22.2246 31.7565C21.9579 31.9165 21.9642 31.882 21.9642 33.0084C21.9642 33.9905 21.9642 33.9999 22.0332 34.0783C22.074 34.1223 22.4097 34.3325 22.7799 34.5458C23.6177 35.029 23.6961 35.0698 23.8059 35.0698C23.8655 35.0698 24.1228 34.9161 24.6311 34.5804Z" fill="url(#paint8_linear_9077_8972)"/>
      </mask>
      <g mask="url(#mask1_9077_8972)">
        <path d="M23.9375 30.8247C23.8921 30.809 23.8194 30.8027 23.7801 30.8121C23.7377 30.8247 23.4198 31.0194 23.0686 31.2456C22.7204 31.4749 22.3662 31.7042 22.2784 31.7576C22.0211 31.9178 22.0271 31.8833 22.0271 33.011C22.0271 33.9942 22.0271 34.0036 22.0938 34.0822C22.1331 34.1262 22.4571 34.3366 22.8143 34.5502C23.6226 35.034 23.6983 35.0748 23.8043 35.0748" stroke="url(#paint9_linear_9077_8972)" stroke-width="0.125504"/>
        <g filter="url(#filter9_if_9077_8972)">
          <path d="M24.7917 32.0682L23.6514 31.3879C23.571 31.3399 23.4705 31.3406 23.3909 31.3899L22.3975 32.0037C22.3235 32.0494 22.2785 32.1302 22.2785 32.2172V33.757C22.2785 33.8457 22.3253 33.9278 22.4016 33.973L23.3873 34.5567C23.469 34.6051 23.571 34.6032 23.6508 34.5519L24.7987 33.8143C24.8706 33.7681 24.9141 33.6885 24.9141 33.6031V32.2837C24.9141 32.1954 24.8676 32.1135 24.7917 32.0682Z" fill="#C7EEFB"/>
        </g>
        <path d="M23.8682 30.9024C23.8659 30.9035 23.8625 30.9056 23.8574 30.9083C23.8456 30.9144 23.8296 30.9232 23.8096 30.9346C23.7695 30.9575 23.7154 30.9903 23.6514 31.0294C23.5238 31.1072 23.3572 31.2109 23.1826 31.3233V31.3243C22.8363 31.5524 22.4818 31.7814 22.3906 31.837V31.838C22.3209 31.8813 22.2861 31.9015 22.2607 31.9278C22.2409 31.9484 22.2238 31.9763 22.2109 32.0401C22.1974 32.1073 22.19 32.2067 22.1865 32.3643C22.1831 32.5208 22.1836 32.7285 22.1836 33.0108C22.1836 33.5044 22.1843 33.7486 22.1924 33.8799C22.1965 33.946 22.202 33.9747 22.207 33.9893C22.2104 33.999 22.2134 34.0027 22.2285 34.0206C22.2308 34.0225 22.2352 34.0268 22.2422 34.0323C22.2537 34.0413 22.2694 34.0526 22.2891 34.0665C22.3292 34.0947 22.3835 34.1318 22.4482 34.1739C22.5776 34.2579 22.747 34.3635 22.9248 34.4698C23.3301 34.7123 23.5492 34.8419 23.6797 34.9112C23.8049 34.9776 23.8356 34.9794 23.8643 34.9796H23.8652C23.8738 34.9764 23.8866 34.9699 23.9043 34.961C23.9397 34.9431 23.9887 34.9155 24.0527 34.876C24.1812 34.7968 24.3645 34.6747 24.6094 34.5069H24.6104C24.8048 34.3739 24.991 34.2422 25.1338 34.1378C25.2051 34.0856 25.2649 34.0401 25.3096 34.0049C25.332 33.9873 25.3508 33.9735 25.3643 33.962C25.371 33.9562 25.3761 33.9509 25.3799 33.9473L25.3877 33.9395L25.4053 33.921C25.4322 33.8919 25.4473 33.8532 25.4473 33.8135V32.8946C25.4473 32.4319 25.4449 32.1789 25.4375 32.0342C25.4297 31.8829 25.4156 31.8757 25.415 31.8751L25.4131 31.8731C25.4166 31.8774 25.4161 31.8755 25.4023 31.8643C25.391 31.8551 25.3749 31.8423 25.3545 31.8272C25.3139 31.7971 25.2583 31.7579 25.1924 31.712C25.0604 31.6202 24.888 31.5043 24.7139 31.3887C24.5399 31.2732 24.3642 31.1582 24.2246 31.0694C24.1548 31.025 24.0943 30.9871 24.0479 30.959C24.0246 30.945 24.0053 30.9333 23.9902 30.9249C23.9827 30.9206 23.9764 30.9176 23.9717 30.9151C23.9696 30.914 23.9681 30.9128 23.9668 30.9122C23.9534 30.9079 23.9329 30.9042 23.9111 30.9024C23.8909 30.9008 23.8759 30.9013 23.8682 30.9024Z" stroke="url(#paint10_linear_9077_8972)" stroke-width="0.188256"/>
      </g>
      <path d="M25.4937 21.5487C25.8702 21.4923 26.2467 21.2036 26.4444 20.824C26.5605 20.598 26.5667 20.5102 26.5103 19.525C26.4946 19.1987 26.4695 18.6025 26.4569 18.2072C26.4318 17.4855 26.4318 17.4824 26.344 17.3287C26.1589 17.0118 25.6129 16.5317 25.2929 16.4031C25.1391 16.3435 24.7407 16.3466 24.5461 16.4125C24.3704 16.4752 24.0849 16.6604 23.8998 16.8361C23.6645 17.0588 23.6739 16.9835 23.6864 18.4896C23.6896 19.2332 23.7053 19.9799 23.7209 20.1556C23.7523 20.5667 23.8402 20.7549 24.1288 21.0436C24.521 21.4295 25.0325 21.6209 25.4937 21.5487Z" fill="url(#paint11_linear_9077_8972)"/>
      <path d="M25.4937 21.5487C25.8702 21.4923 26.2467 21.2036 26.4444 20.824C26.5605 20.598 26.5667 20.5102 26.5103 19.525C26.4946 19.1987 26.4695 18.6025 26.4569 18.2072C26.4318 17.4855 26.4318 17.4824 26.344 17.3287C26.1589 17.0118 25.6129 16.5317 25.2929 16.4031C25.1391 16.3435 24.7407 16.3466 24.5461 16.4125C24.3704 16.4752 24.0849 16.6604 23.8998 16.8361C23.6645 17.0588 23.6739 16.9835 23.6864 18.4896C23.6896 19.2332 23.7053 19.9799 23.7209 20.1556C23.7523 20.5667 23.8402 20.7549 24.1288 21.0436C24.521 21.4295 25.0325 21.6209 25.4937 21.5487Z" fill="white" fill-opacity="0.5"/>
      <path d="M17.7179 21.3761C18.176 21.2757 18.7439 20.8616 18.9227 20.4976L18.998 20.3407L19.0075 18.7876C19.0137 17.7459 19.0075 17.1968 18.9855 17.1215C18.9604 17.04 18.8694 16.927 18.6717 16.745C18.198 16.2964 17.8842 16.1489 17.3477 16.1269C16.9806 16.1112 16.808 16.1489 16.4503 16.3089C16.0581 16.4877 15.6345 16.836 15.5435 17.0494C15.509 17.1341 15.4996 17.4604 15.4996 18.6998C15.4996 20.576 15.4902 20.5102 15.8322 20.849C16.2056 21.2224 16.7201 21.4263 17.2661 21.4201C17.4073 21.4201 17.6112 21.3981 17.7179 21.3761Z" fill="url(#paint12_linear_9077_8972)"/>
      <path d="M17.7179 21.3761C18.176 21.2757 18.7439 20.8616 18.9227 20.4976L18.998 20.3407L19.0075 18.7876C19.0137 17.7459 19.0075 17.1968 18.9855 17.1215C18.9604 17.04 18.8694 16.927 18.6717 16.745C18.198 16.2964 17.8842 16.1489 17.3477 16.1269C16.9806 16.1112 16.808 16.1489 16.4503 16.3089C16.0581 16.4877 15.6345 16.836 15.5435 17.0494C15.509 17.1341 15.4996 17.4604 15.4996 18.6998C15.4996 20.576 15.4902 20.5102 15.8322 20.849C16.2056 21.2224 16.7201 21.4263 17.2661 21.4201C17.4073 21.4201 17.6112 21.3981 17.7179 21.3761Z" fill="white" fill-opacity="0.5"/>
      <path d="M22.2501 24.9964C22.8651 24.9274 23.5491 24.7768 23.8063 24.6513C24.0887 24.5133 24.2676 24.2434 24.2142 24.0332C24.1766 23.8826 24.0793 23.8701 23.7185 23.9673C23.2259 24.0991 22.8933 24.1399 22.1246 24.1681C21.268 24.1964 20.5307 24.165 20.0695 24.0771C19.5235 23.9705 19.4357 23.9673 19.3635 24.0301C19.2725 24.1116 19.2851 24.2591 19.3949 24.4317C19.5424 24.667 19.7055 24.7423 20.3205 24.8615C20.97 24.987 21.7983 25.0467 22.2501 24.9964Z" fill="url(#paint13_linear_9077_8972)"/>
      <path d="M22.2501 24.9964C22.8651 24.9274 23.5491 24.7768 23.8063 24.6513C24.0887 24.5133 24.2676 24.2434 24.2142 24.0332C24.1766 23.8826 24.0793 23.8701 23.7185 23.9673C23.2259 24.0991 22.8933 24.1399 22.1246 24.1681C21.268 24.1964 20.5307 24.165 20.0695 24.0771C19.5235 23.9705 19.4357 23.9673 19.3635 24.0301C19.2725 24.1116 19.2851 24.2591 19.3949 24.4317C19.5424 24.667 19.7055 24.7423 20.3205 24.8615C20.97 24.987 21.7983 25.0467 22.2501 24.9964Z" fill="white" fill-opacity="0.5"/>
      <path d="M32.2347 37.1196C32.2347 37.1322 31.3656 37.1949 31.4974 37.1887C30.3961 37.1887 30.3239 37.1855 30.3083 37.1322C30.2957 37.1008 30.3334 36.9565 30.3867 36.8122C30.5248 36.4294 30.713 35.8426 30.8071 35.4787C30.8511 35.3061 30.8981 35.143 30.9075 35.1179C30.917 35.0928 30.9295 35.0426 30.9326 35.008C30.9515 34.8888 31.0801 34.255 31.0989 34.208C31.1083 34.1829 31.1146 34.1515 31.1115 34.1421C31.1083 34.1295 31.1366 33.9475 31.168 33.7342C31.3531 32.5576 31.4158 31.4186 31.4221 29.2035C31.4221 28.4003 31.4347 27.7382 31.4503 27.7288C31.5131 27.688 31.9398 28.874 32.1218 29.5957C32.5203 31.1927 32.696 33.3357 32.5642 34.9829C32.5109 35.6199 32.3979 36.42 32.2975 36.8373C32.263 36.9816 32.2347 37.1071 32.2347 37.1196Z" fill="url(#paint14_linear_9077_8972)"/>
      <g filter="url(#filter10_i_9077_8972)">
        <path d="M27.988 33.7884C27.8876 35.2693 27.7161 36.6227 27.6429 37.1143H29.1803L30.6863 26.4464L31.2197 22.1479L31.157 21.489C31.0315 21.3635 30.6236 20.9556 30.1843 20.6105C29.2117 23.3716 28.8038 26.8857 28.741 27.2622C28.6783 27.6387 28.49 28.078 28.3331 28.329C28.2076 28.5298 28.1972 28.831 28.2076 28.9565C28.1763 29.9501 28.0884 32.3075 27.988 33.7884Z" fill="url(#paint15_linear_9077_8972)"/>
      </g>
      <g filter="url(#filter11_i_9077_8972)">
        <path d="M30.408 37.0579C30.4174 37.0077 30.5021 36.741 30.5994 36.4618C30.6935 36.1794 30.8159 35.784 30.8692 35.5832C30.9226 35.3793 30.9791 35.1879 30.9947 35.1597C31.0136 35.1283 31.0261 35.0718 31.0261 35.0342C31.0261 34.9306 31.1516 34.3125 31.1861 34.2498C31.2018 34.2184 31.2144 34.1399 31.2144 34.0772C31.2144 34.0113 31.2363 33.8325 31.2614 33.6756C31.4246 32.681 31.4936 31.429 31.4999 29.2484C31.5062 28.0059 31.4999 27.7863 31.456 27.6639C31.4183 27.5541 31.3995 27.2498 31.3713 26.1296C31.3524 25.3609 31.3242 24.4291 31.3085 24.0588C31.2928 23.6886 31.2708 23.1113 31.2583 22.7787C31.2426 22.3112 31.2301 22.1669 31.1955 22.1543C31.1391 22.1323 31.0575 22.2202 31.0575 22.3018C31.0575 22.3394 30.9728 22.6281 30.8692 22.9418C30.1539 25.1099 29.6362 27.2592 29.5201 28.5676C29.5012 28.7715 29.4793 28.9598 29.473 28.9849C29.4573 29.0351 29.36 30.5662 29.2847 31.9342C29.1624 34.1399 29.0024 35.784 28.8267 36.6375C28.7953 36.7975 28.767 36.9763 28.767 37.0359V37.1426H29.5797H30.3923L30.408 37.0579Z" fill="url(#paint16_linear_9077_8972)"/>
      </g>
      <mask id="mask2_9077_8972" style="mask-type:alpha" maskUnits="userSpaceOnUse" x="28" y="22" width="4" height="16">
        <path d="M30.408 37.0579C30.4174 37.0077 30.5021 36.741 30.5994 36.4618C30.6935 36.1794 30.8159 35.784 30.8692 35.5832C30.9226 35.3793 30.9791 35.1879 30.9947 35.1597C31.0136 35.1283 31.0261 35.0718 31.0261 35.0342C31.0261 34.9306 31.1516 34.3125 31.1861 34.2498C31.2018 34.2184 31.2144 34.1399 31.2144 34.0772C31.2144 34.0113 31.2363 33.8325 31.2614 33.6756C31.4246 32.681 31.4936 31.429 31.4999 29.2484C31.5062 28.0059 31.4999 27.7863 31.456 27.6639C31.4183 27.5541 31.3995 27.2498 31.3713 26.1296C31.3524 25.3609 31.3242 24.4291 31.3085 24.0588C31.2928 23.6886 31.2708 23.1113 31.2583 22.7787C31.2426 22.3112 31.2301 22.1669 31.1955 22.1543C31.1391 22.1323 31.0575 22.2202 31.0575 22.3018C31.0575 22.3394 30.9728 22.6281 30.8692 22.9418C30.1539 25.1099 29.6362 27.2592 29.5201 28.5676C29.5012 28.7715 29.4793 28.9598 29.473 28.9849C29.4573 29.0351 29.36 30.5662 29.2847 31.9342C29.1624 34.1399 29.0024 35.784 28.8267 36.6375C28.7953 36.7975 28.767 36.9763 28.767 37.0359V37.1426H29.5797H30.3923L30.408 37.0579Z" fill="url(#paint17_linear_9077_8972)"/>
      </mask>
      <g mask="url(#mask2_9077_8972)">
        <g filter="url(#filter12_f_9077_8972)">
          <path d="M29.4972 28.1895L31.307 22.0955L30.56 21.0222L29.4972 28.1895Z" fill="#BDC6C9" fill-opacity="0.6"/>
        </g>
      </g>
      <path d="M17.979 29.1134C18.7321 33.1923 18.3418 37.3903 18.2477 38.5826L16.5985 40.0508L16.2534 35.8592L9.6644 24.5325C8.00147 23.7899 4.70699 22.173 4.83249 21.6459C4.95799 21.1188 5.70056 20.6523 6.05616 20.485C7.07065 20.1712 9.72088 19.914 12.2059 21.3949C15.3121 23.2461 16.0337 25.2855 16.5985 26.6974C17.0503 27.827 17.3984 28.3707 17.5711 28.4859C17.7594 28.6114 17.9057 28.7165 17.979 29.1134Z" fill="#B0DBEB"/>
      <mask id="mask3_9077_8972" style="mask-type:alpha" maskUnits="userSpaceOnUse" x="4" y="20" width="15" height="19">
        <path d="M18.2657 38.9269L18.262 38.9731H16.5991L16.2539 35.8592L9.66498 24.5325C8.00205 23.7899 4.70757 22.173 4.83308 21.6459C4.95858 21.1188 5.70115 20.6523 6.05674 20.485C7.07123 20.1712 9.72146 19.914 12.2064 21.3949C15.3127 23.2461 16.0343 25.2855 16.5991 26.6974C17.0509 27.827 17.399 28.3707 17.5717 28.4859C17.76 28.6114 17.9063 28.7165 17.9796 29.1134C18.7233 33.1414 18.3654 37.6664 18.2657 38.9269Z" fill="url(#paint18_linear_9077_8972)"/>
      </mask>
      <g mask="url(#mask3_9077_8972)">
        <g filter="url(#filter13_f_9077_8972)">
          <path d="M17.5715 29.3017C18.1488 32.9915 18.0352 37.7495 17.8888 38.9418L19.3599 39.2165L20.5836 36.7378L21.6504 24.1874L9.53925 16.4375C5.09432 18.6443 -2.14324 22.9035 5.02111 21.2067C10.9825 19.7947 14.4653 23.5285 16.7557 28.6114C17.1322 28.7369 17.5322 29.0507 17.5715 29.3017Z" fill="url(#paint19_linear_9077_8972)"/>
        </g>
      </g>
      <path d="M16.9453 34.4913C16.9453 35.5362 16.9202 35.9692 16.8229 36.7285L16.7696 38.9387H11.7714H6.77321V38.8697C6.77321 38.8289 6.79831 36.81 6.82655 36.5747C6.87362 36.1951 6.87675 36.0821 6.8391 35.555C6.80459 35.0185 6.77949 34.7518 6.67908 33.9109C6.66026 33.7634 6.61947 33.39 6.58496 33.0794C6.55044 32.7688 6.50652 32.408 6.49083 32.2793C6.472 32.1507 6.40925 31.6424 6.3465 31.1498C6.28375 30.6572 6.221 30.1646 6.20531 30.0516C6.19276 29.9387 6.15197 29.6375 6.11745 29.3771C6.04843 28.8593 5.84762 27.6294 5.79742 27.4317C5.73153 27.1556 5.62171 26.8576 5.52758 26.6881C5.47425 26.5909 5.42091 26.481 5.40836 26.4465C5.39894 26.4089 5.36129 26.3806 5.32678 26.3806C5.2954 26.3806 5.26716 26.3618 5.26716 26.3367C5.26716 26.2928 5.17304 26.2677 4.88124 26.2363L4.70553 26.415V26.0198C4.70867 25.9508 4.71808 24.9373 4.73063 23.767C4.74946 21.7339 4.7526 21.6366 4.80907 21.5958C4.88752 21.5362 5.36443 21.3668 5.6123 21.3071C5.72525 21.2789 5.88527 21.2381 5.97312 21.2099C6.23354 21.1346 7.56389 21.1189 8.07532 21.1879C8.29809 21.2193 8.56164 21.2507 8.65577 21.2569C8.7499 21.2664 8.84089 21.2852 8.85972 21.2977C8.8754 21.3134 8.98208 21.3417 9.09504 21.3605C9.20799 21.3824 9.32722 21.4107 9.36173 21.4264C9.39625 21.4421 9.58764 21.5048 9.78531 21.5676C11.1596 21.9974 12.6876 22.9607 13.654 24.0023C15.2667 25.7437 16.2048 27.849 16.6535 30.7419C16.8763 32.1821 16.9453 33.092 16.9453 34.4913Z" fill="#C8BDBC"/>
      <mask id="mask4_9077_8972" style="mask-type:alpha" maskUnits="userSpaceOnUse" x="4" y="21" width="13" height="18">
        <path d="M16.9453 34.4913C16.9453 35.5362 16.9202 37.7653 16.8229 38.5246L16.7696 38.9387H11.7714H6.77321V38.8697C6.77321 38.8289 6.79831 38.6061 6.82655 38.3708C6.87362 37.9912 6.87675 36.0821 6.8391 35.555C6.80459 35.0185 6.77949 34.7518 6.67908 33.9109C6.66026 33.7634 6.61947 33.39 6.58496 33.0794C6.55044 32.7688 6.50652 32.408 6.49083 32.2793C6.472 32.1507 6.40925 31.6424 6.3465 31.1498C6.28375 30.6572 6.221 30.1646 6.20531 30.0516C6.19276 29.9387 6.15197 29.6375 6.11745 29.3771C6.04843 28.8593 5.84762 27.6294 5.79742 27.4317C5.73153 27.1556 5.62171 26.8576 5.52758 26.6881C5.47425 26.5909 5.42091 26.481 5.40836 26.4465C5.39894 26.4089 5.36129 26.3806 5.32678 26.3806C5.2954 26.3806 5.26716 26.3618 5.26716 26.3367C5.26716 26.2928 5.17304 26.2677 4.88124 26.2363L4.70553 26.415V26.0198C4.70867 25.9508 4.71808 24.9373 4.73063 23.767C4.74946 21.7339 4.7526 21.6366 4.80907 21.5958C4.88752 21.5362 5.36443 21.3668 5.6123 21.3071C5.72525 21.2789 5.88527 21.2381 5.97312 21.2099C6.23354 21.1346 7.56389 21.1189 8.07532 21.1879C8.29809 21.2193 8.56164 21.2507 8.65577 21.2569C8.7499 21.2664 8.84089 21.2852 8.85972 21.2977C8.8754 21.3134 8.98208 21.3417 9.09504 21.3605C9.20799 21.3824 9.32722 21.4107 9.36173 21.4264C9.39625 21.4421 9.58764 21.5048 9.78531 21.5676C11.1596 21.9974 12.6876 22.9607 13.654 24.0023C15.2667 25.7437 16.2048 27.849 16.6535 30.7419C16.8763 32.1821 16.9453 33.092 16.9453 34.4913Z" fill="#C8BDBC"/>
      </mask>
      <g mask="url(#mask4_9077_8972)">
        <g filter="url(#filter14_f_9077_8972)">
          <path d="M5.64907 25.9443L5.93145 21.3948L8.80632 17.8807L19.0482 23.4656L20.082 38.3692L7.15512 38.7457C6.96686 35.1061 6.24162 27.9084 5.93145 27.1052C5.62129 26.302 5.99421 25.9443 5.64907 25.9443Z" fill="url(#paint20_linear_9077_8972)"/>
        </g>
        <path d="M15.1871 26.9171L15.8774 27.7328L18.1992 29.333L15.8774 21.8969L5.58607 19.5123L4.73891 21.5831V22.1165C5.28276 21.4053 8.53541 21.2059 10.4807 22.3048C13.7689 24.1623 14.9884 26.1536 15.1871 26.9171Z" fill="url(#paint21_linear_9077_8972)"/>
        <path d="M7.18608 33.5374L7.78223 37.2397H6.87232L7.18608 33.5374Z" fill="#A99897"/>
        <g filter="url(#filter15_f_9077_8972)">
          <path d="M6.40181 27.3823C6.1006 26.4285 5.48145 26.3574 5.20952 26.441V27.602L6.05667 32.2142L6.77832 38.0815L7.75098 38.5262V34.9753C7.42676 32.8417 6.70302 28.3362 6.40181 27.3823Z" fill="url(#paint22_linear_9077_8972)" fill-opacity="0.6"/>
        </g>
        <g filter="url(#filter16_f_9077_8972)">
          <path d="M6.55828 29.992C6.46415 29.0402 6.21314 27.0301 5.96213 26.6034C5.83663 26.5406 5.58562 26.5092 5.58562 26.8857V27.2622L6.37002 30.996L7.15442 35.3886L7.59369 38.4949H8.0957L7.49956 35.7338L6.55828 29.992Z" fill="url(#paint23_linear_9077_8972)"/>
        </g>
        <g filter="url(#filter17_f_9077_8972)">
          <path d="M6.68426 30.1174C6.59013 29.1657 6.33912 27.1556 6.08811 26.7288C5.96261 26.6661 5.7116 26.6347 5.7116 27.0112V27.3877L6.496 31.1215L7.2804 35.5141L7.71966 38.6203H8.22168L7.62554 35.8593L6.68426 30.1174Z" fill="url(#paint24_linear_9077_8972)" fill-opacity="0.4"/>
        </g>
      </g>
      <g filter="url(#filter18_ii_9077_8972)">
        <path d="M1.9455 31.8431C1.54389 34.554 1.77816 36.5495 1.9455 37.2084C3.5143 37.2502 6.69583 37.3088 6.87153 37.2084C7.04724 37.108 7.07025 34.7924 6.99704 33.5687C6.99704 33.5687 6.71921 31.4785 6.58914 30.2429C6.46364 29.0506 6.20636 26.8292 5.55374 26.3523C4.90112 25.8753 4.19411 26.551 3.92219 26.9484C3.43063 27.4504 2.34711 29.1322 1.9455 31.8431Z" fill="url(#paint25_linear_9077_8972)"/>
      </g>
      <g filter="url(#filter19_f_9077_8972)">
        <path d="M6.13616 32.1568C6.37211 34.2402 6.45294 36.5181 6.46387 37.3966H4.1699C3.46204 31.7992 4.66146 27.9315 5.34965 26.9171C5.51351 27.6492 5.90021 30.0735 6.13616 32.1568Z" fill="url(#paint26_linear_9077_8972)" fill-opacity="0.9"/>
      </g>
      <g filter="url(#filter20_f_9077_8972)">
        <path d="M3.32324 28.1356C2.68458 29.1538 1.58266 32.5132 2.28428 37.8051" stroke="url(#paint27_linear_9077_8972)" stroke-width="0.251008"/>
      </g>
    </g>
  </g>
  <defs>
    <filter id="filter0_f_9077_8972" x="5.1463" y="4.61956" width="27.1713" height="36.4589" filterUnits="userSpaceOnUse" color-interpolation-filters="sRGB">
      <feFlood flood-opacity="0" result="BackgroundImageFix"/>
      <feBlend mode="normal" in="SourceGraphic" in2="BackgroundImageFix" result="shape"/>
      <feGaussianBlur stdDeviation="0.753024" result="effect1_foregroundBlur_9077_8972"/>
    </filter>
    <filter id="filter1_f_9077_8972" x="4.50561" y="12.087" width="7.4175" height="15.405" filterUnits="userSpaceOnUse" color-interpolation-filters="sRGB">
      <feFlood flood-opacity="0" result="BackgroundImageFix"/>
      <feBlend mode="normal" in="SourceGraphic" in2="BackgroundImageFix" result="shape"/>
      <feGaussianBlur stdDeviation="1.00403" result="effect1_foregroundBlur_9077_8972"/>
    </filter>
    <filter id="filter2_f_9077_8972" x="4.5183" y="11.585" width="10.5425" height="15.3742" filterUnits="userSpaceOnUse" color-interpolation-filters="sRGB">
      <feFlood flood-opacity="0" result="BackgroundImageFix"/>
      <feBlend mode="normal" in="SourceGraphic" in2="BackgroundImageFix" result="shape"/>
      <feGaussianBlur stdDeviation="1.00403" result="effect1_foregroundBlur_9077_8972"/>
    </filter>
    <filter id="filter3_f_9077_8972" x="10.1664" y="5.37248" width="21.838" height="35.8314" filterUnits="userSpaceOnUse" color-interpolation-filters="sRGB">
      <feFlood flood-opacity="0" result="BackgroundImageFix"/>
      <feBlend mode="normal" in="SourceGraphic" in2="BackgroundImageFix" result="shape"/>
      <feGaussianBlur stdDeviation="2.25907" result="effect1_foregroundBlur_9077_8972"/>
    </filter>
    <filter id="filter4_f_9077_8972" x="9.90099" y="29.5104" width="28.6287" height="14.1902" filterUnits="userSpaceOnUse" color-interpolation-filters="sRGB">
      <feFlood flood-opacity="0" result="BackgroundImageFix"/>
      <feBlend mode="normal" in="SourceGraphic" in2="BackgroundImageFix" result="shape"/>
      <feGaussianBlur stdDeviation="1.50605" result="effect1_foregroundBlur_9077_8972"/>
    </filter>
    <filter id="filter5_f_9077_8972" x="25.1678" y="20.4435" width="6.26588" height="18.7915" filterUnits="userSpaceOnUse" color-interpolation-filters="sRGB">
      <feFlood flood-opacity="0" result="BackgroundImageFix"/>
      <feBlend mode="normal" in="SourceGraphic" in2="BackgroundImageFix" result="shape"/>
      <feGaussianBlur stdDeviation="0.502016" result="effect1_foregroundBlur_9077_8972"/>
    </filter>
    <filter id="filter6_f_9077_8972" x="26.9804" y="20.1691" width="4.43073" height="18.8255" filterUnits="userSpaceOnUse" color-interpolation-filters="sRGB">
      <feFlood flood-opacity="0" result="BackgroundImageFix"/>
      <feBlend mode="normal" in="SourceGraphic" in2="BackgroundImageFix" result="shape"/>
      <feGaussianBlur stdDeviation="0.125504" result="effect1_foregroundBlur_9077_8972"/>
    </filter>
    <filter id="filter7_f_9077_8972" x="26.667" y="20.734" width="4.43073" height="17.3195" filterUnits="userSpaceOnUse" color-interpolation-filters="sRGB">
      <feFlood flood-opacity="0" result="BackgroundImageFix"/>
      <feBlend mode="normal" in="SourceGraphic" in2="BackgroundImageFix" result="shape"/>
      <feGaussianBlur stdDeviation="0.125504" result="effect1_foregroundBlur_9077_8972"/>
    </filter>
    <filter id="filter8_f_9077_8972" x="19.7039" y="29.9714" width="7.1537" height="7.15376" filterUnits="userSpaceOnUse" color-interpolation-filters="sRGB">
      <feFlood flood-opacity="0" result="BackgroundImageFix"/>
      <feBlend mode="normal" in="SourceGraphic" in2="BackgroundImageFix" result="shape"/>
      <feGaussianBlur stdDeviation="0.753024" result="effect1_foregroundBlur_9077_8972"/>
    </filter>
    <filter id="filter9_if_9077_8972" x="22.1528" y="31.2269" width="2.9495" height="3.49033" filterUnits="userSpaceOnUse" color-interpolation-filters="sRGB">
      <feFlood flood-opacity="0" result="BackgroundImageFix"/>
      <feBlend mode="normal" in="SourceGraphic" in2="BackgroundImageFix" result="shape"/>
      <feColorMatrix in="SourceAlpha" type="matrix" values="0 0 0 0 0 0 0 0 0 0 0 0 0 0 0 0 0 0 127 0" result="hardAlpha"/>
      <feOffset dx="0.251008"/>
      <feGaussianBlur stdDeviation="0.094128"/>
      <feComposite in2="hardAlpha" operator="arithmetic" k2="-1" k3="1"/>
      <feColorMatrix type="matrix" values="0 0 0 0 0.389432 0 0 0 0 0.582577 0 0 0 0 0.968867 0 0 0 1 0"/>
      <feBlend mode="normal" in2="shape" result="effect1_innerShadow_9077_8972"/>
      <feGaussianBlur stdDeviation="0.062752" result="effect2_foregroundBlur_9077_8972"/>
    </filter>
    <filter id="filter10_i_9077_8972" x="27.5798" y="20.6105" width="3.6399" height="16.5665" filterUnits="userSpaceOnUse" color-interpolation-filters="sRGB">
      <feFlood flood-opacity="0" result="BackgroundImageFix"/>
      <feBlend mode="normal" in="SourceGraphic" in2="BackgroundImageFix" result="shape"/>
      <feColorMatrix in="SourceAlpha" type="matrix" values="0 0 0 0 0 0 0 0 0 0 0 0 0 0 0 0 0 0 127 0" result="hardAlpha"/>
      <feOffset dx="-0.125504" dy="0.062752"/>
      <feGaussianBlur stdDeviation="0.031376"/>
      <feComposite in2="hardAlpha" operator="arithmetic" k2="-1" k3="1"/>
      <feColorMatrix type="matrix" values="0 0 0 0 0.623529 0 0 0 0 0.811765 0 0 0 0 0.854902 0 0 0 1 0"/>
      <feBlend mode="normal" in2="shape" result="effect1_innerShadow_9077_8972"/>
    </filter>
    <filter id="filter11_i_9077_8972" x="28.7666" y="22.1509" width="2.92361" height="14.9918" filterUnits="userSpaceOnUse" color-interpolation-filters="sRGB">
      <feFlood flood-opacity="0" result="BackgroundImageFix"/>
      <feBlend mode="normal" in="SourceGraphic" in2="BackgroundImageFix" result="shape"/>
      <feColorMatrix in="SourceAlpha" type="matrix" values="0 0 0 0 0 0 0 0 0 0 0 0 0 0 0 0 0 0 127 0" result="hardAlpha"/>
      <feOffset dx="0.188256"/>
      <feGaussianBlur stdDeviation="0.22277"/>
      <feComposite in2="hardAlpha" operator="arithmetic" k2="-1" k3="1"/>
      <feColorMatrix type="matrix" values="0 0 0 0 0 0 0 0 0 0 0 0 0 0 0 0 0 0 0.15 0"/>
      <feBlend mode="normal" in2="shape" result="effect1_innerShadow_9077_8972"/>
    </filter>
    <filter id="filter12_f_9077_8972" x="29.4343" y="20.9595" width="1.93507" height="7.2928" filterUnits="userSpaceOnUse" color-interpolation-filters="sRGB">
      <feFlood flood-opacity="0" result="BackgroundImageFix"/>
      <feBlend mode="normal" in="SourceGraphic" in2="BackgroundImageFix" result="shape"/>
      <feGaussianBlur stdDeviation="0.031376" result="effect1_foregroundBlur_9077_8972"/>
    </filter>
    <filter id="filter13_f_9077_8972" x="1.87157" y="16.312" width="19.9043" height="23.03" filterUnits="userSpaceOnUse" color-interpolation-filters="sRGB">
      <feFlood flood-opacity="0" result="BackgroundImageFix"/>
      <feBlend mode="normal" in="SourceGraphic" in2="BackgroundImageFix" result="shape"/>
      <feGaussianBlur stdDeviation="0.062752" result="effect1_foregroundBlur_9077_8972"/>
    </filter>
    <filter id="filter14_f_9077_8972" x="4.89639" y="17.1277" width="15.9387" height="22.3711" filterUnits="userSpaceOnUse" color-interpolation-filters="sRGB">
      <feFlood flood-opacity="0" result="BackgroundImageFix"/>
      <feBlend mode="normal" in="SourceGraphic" in2="BackgroundImageFix" result="shape"/>
      <feGaussianBlur stdDeviation="0.376512" result="effect1_foregroundBlur_9077_8972"/>
    </filter>
    <filter id="filter15_f_9077_8972" x="4.83345" y="26.0386" width="3.29404" height="12.8642" filterUnits="userSpaceOnUse" color-interpolation-filters="sRGB">
      <feFlood flood-opacity="0" result="BackgroundImageFix"/>
      <feBlend mode="normal" in="SourceGraphic" in2="BackgroundImageFix" result="shape"/>
      <feGaussianBlur stdDeviation="0.188256" result="effect1_foregroundBlur_9077_8972"/>
    </filter>
    <filter id="filter16_f_9077_8972" x="5.27218" y="26.2512" width="3.13729" height="12.5574" filterUnits="userSpaceOnUse" color-interpolation-filters="sRGB">
      <feFlood flood-opacity="0" result="BackgroundImageFix"/>
      <feBlend mode="normal" in="SourceGraphic" in2="BackgroundImageFix" result="shape"/>
      <feGaussianBlur stdDeviation="0.15688" result="effect1_foregroundBlur_9077_8972"/>
    </filter>
    <filter id="filter17_f_9077_8972" x="5.58641" y="26.565" width="2.76077" height="12.1809" filterUnits="userSpaceOnUse" color-interpolation-filters="sRGB">
      <feFlood flood-opacity="0" result="BackgroundImageFix"/>
      <feBlend mode="normal" in="SourceGraphic" in2="BackgroundImageFix" result="shape"/>
      <feGaussianBlur stdDeviation="0.062752" result="effect1_foregroundBlur_9077_8972"/>
    </filter>
    <filter id="filter18_ii_9077_8972" x="1.66088" y="26.1255" width="5.50076" height="11.1383" filterUnits="userSpaceOnUse" color-interpolation-filters="sRGB">
      <feFlood flood-opacity="0" result="BackgroundImageFix"/>
      <feBlend mode="normal" in="SourceGraphic" in2="BackgroundImageFix" result="shape"/>
      <feColorMatrix in="SourceAlpha" type="matrix" values="0 0 0 0 0 0 0 0 0 0 0 0 0 0 0 0 0 0 127 0" result="hardAlpha"/>
      <feOffset dx="-0.188256"/>
      <feGaussianBlur stdDeviation="0.031376"/>
      <feComposite in2="hardAlpha" operator="arithmetic" k2="-1" k3="1"/>
      <feColorMatrix type="matrix" values="0 0 0 0 1 0 0 0 0 1 0 0 0 0 1 0 0 0 0.3 0"/>
      <feBlend mode="normal" in2="shape" result="effect1_innerShadow_9077_8972"/>
      <feColorMatrix in="SourceAlpha" type="matrix" values="0 0 0 0 0 0 0 0 0 0 0 0 0 0 0 0 0 0 127 0" result="hardAlpha"/>
      <feOffset dx="0.251008" dy="-0.062752"/>
      <feGaussianBlur stdDeviation="0.062752"/>
      <feComposite in2="hardAlpha" operator="arithmetic" k2="-1" k3="1"/>
      <feColorMatrix type="matrix" values="0 0 0 0 0.282353 0 0 0 0 0.282353 0 0 0 0 0.278431 0 0 0 0.4 0"/>
      <feBlend mode="normal" in2="effect1_innerShadow_9077_8972" result="effect2_innerShadow_9077_8972"/>
    </filter>
    <filter id="filter19_f_9077_8972" x="3.57759" y="26.5405" width="3.26279" height="11.2326" filterUnits="userSpaceOnUse" color-interpolation-filters="sRGB">
      <feFlood flood-opacity="0" result="BackgroundImageFix"/>
      <feBlend mode="normal" in="SourceGraphic" in2="BackgroundImageFix" result="shape"/>
      <feGaussianBlur stdDeviation="0.188256" result="effect1_foregroundBlur_9077_8972"/>
    </filter>
    <filter id="filter20_f_9077_8972" x="1.55708" y="27.6924" width="2.24912" height="10.5056" filterUnits="userSpaceOnUse" color-interpolation-filters="sRGB">
      <feFlood flood-opacity="0" result="BackgroundImageFix"/>
      <feBlend mode="normal" in="SourceGraphic" in2="BackgroundImageFix" result="shape"/>
      <feGaussianBlur stdDeviation="0.188256" result="effect1_foregroundBlur_9077_8972"/>
    </filter>
    <linearGradient id="paint0_linear_9077_8972" x1="26.3659" y1="23.9517" x2="8.13343" y2="20.7528" gradientUnits="userSpaceOnUse">
      <stop stop-color="#107AE2"/>
      <stop offset="0.817587" stop-color="#0055CF"/>
      <stop offset="1" stop-color="#01258E"/>
    </linearGradient>
    <linearGradient id="paint1_linear_9077_8972" x1="6.72622" y1="19.8432" x2="8.96176" y2="19.8432" gradientUnits="userSpaceOnUse">
      <stop stop-color="#002FBA"/>
      <stop offset="1" stop-color="#001B6C" stop-opacity="0"/>
    </linearGradient>
    <linearGradient id="paint2_linear_9077_8972" x1="12.0173" y1="18.3622" x2="12.6135" y2="18.2053" gradientUnits="userSpaceOnUse">
      <stop stop-color="#001B6D"/>
      <stop offset="1" stop-color="#001B6C" stop-opacity="0"/>
    </linearGradient>
    <linearGradient id="paint3_linear_9077_8972" x1="21.1265" y1="9.90146" x2="21.1265" y2="36.6857" gradientUnits="userSpaceOnUse">
      <stop offset="0.0857429" stop-color="#9FD5FF"/>
      <stop offset="1" stop-color="#1A74D2"/>
    </linearGradient>
    <linearGradient id="paint4_linear_9077_8972" x1="30.4933" y1="22.2604" x2="27.8895" y2="38.2239" gradientUnits="userSpaceOnUse">
      <stop stop-color="#09377C" stop-opacity="0"/>
      <stop offset="0.397015" stop-color="#0A46A0"/>
    </linearGradient>
    <linearGradient id="paint5_linear_9077_8972" x1="31.2072" y1="21.2095" x2="28.9639" y2="37.2297" gradientUnits="userSpaceOnUse">
      <stop stop-color="#09377C" stop-opacity="0"/>
      <stop offset="0.529288" stop-color="#09377C"/>
    </linearGradient>
    <linearGradient id="paint6_linear_9077_8972" x1="30.8937" y1="21.7744" x2="28.6505" y2="37.7946" gradientUnits="userSpaceOnUse">
      <stop stop-color="#09377C" stop-opacity="0"/>
      <stop offset="0.397015" stop-color="#0D3083"/>
    </linearGradient>
    <linearGradient id="paint7_linear_9077_8972" x1="24.7252" y1="31.3724" x2="25.541" y2="35.0748" gradientUnits="userSpaceOnUse">
      <stop offset="0.0961711" stop-color="#000067"/>
      <stop offset="0.235417" stop-color="#0000CD"/>
    </linearGradient>
    <linearGradient id="paint8_linear_9077_8972" x1="24.3801" y1="30.9959" x2="23.7526" y2="35.0698" gradientUnits="userSpaceOnUse">
      <stop offset="0.067679" stop-color="#000067"/>
      <stop offset="0.241157" stop-color="#003DB6"/>
    </linearGradient>
    <linearGradient id="paint9_linear_9077_8972" x1="22.9823" y1="30.8077" x2="22.9823" y2="35.0748" gradientUnits="userSpaceOnUse">
      <stop stop-color="#0000CB"/>
      <stop offset="1" stop-color="#000074"/>
    </linearGradient>
    <linearGradient id="paint10_linear_9077_8972" x1="24.2546" y1="30.6508" x2="22.0897" y2="34.6042" gradientUnits="userSpaceOnUse">
      <stop stop-color="#95969C"/>
      <stop offset="0.352758" stop-color="#C8CACD"/>
      <stop offset="1" stop-color="#C2C3CE"/>
    </linearGradient>
    <linearGradient id="paint11_linear_9077_8972" x1="26.5449" y1="20.0143" x2="23.1563" y2="19.4496" gradientUnits="userSpaceOnUse">
      <stop stop-color="#EEF6FB"/>
      <stop offset="1" stop-color="#EDF5FB"/>
    </linearGradient>
    <linearGradient id="paint12_linear_9077_8972" x1="19.0139" y1="18.7592" x2="14.9664" y2="18.2572" gradientUnits="userSpaceOnUse">
      <stop stop-color="#E5F0F9"/>
      <stop offset="1" stop-color="#DBEAF6"/>
    </linearGradient>
    <linearGradient id="paint13_linear_9077_8972" x1="24.2294" y1="24.4569" x2="20.8189" y2="21.6255" gradientUnits="userSpaceOnUse">
      <stop stop-color="#E5F0F9"/>
      <stop offset="1" stop-color="#DBEAF6"/>
    </linearGradient>
    <linearGradient id="paint14_linear_9077_8972" x1="32.6316" y1="34.3845" x2="31.0628" y2="34.1335" gradientUnits="userSpaceOnUse">
      <stop stop-color="#B6BCBC"/>
      <stop offset="1" stop-color="#D1D1D1"/>
    </linearGradient>
    <linearGradient id="paint15_linear_9077_8972" x1="29.4313" y1="26.8229" x2="29.4313" y2="37.1143" gradientUnits="userSpaceOnUse">
      <stop stop-color="#C8F3FC"/>
      <stop offset="1" stop-color="#9FE8F9"/>
    </linearGradient>
    <linearGradient id="paint16_linear_9077_8972" x1="32.6001" y1="30.7135" x2="27.2022" y2="28.7564" gradientUnits="userSpaceOnUse">
      <stop stop-color="#B8C2C2"/>
      <stop offset="1" stop-color="white"/>
    </linearGradient>
    <linearGradient id="paint17_linear_9077_8972" x1="32.6001" y1="30.7135" x2="27.2022" y2="28.7564" gradientUnits="userSpaceOnUse">
      <stop stop-color="#B8C2C2"/>
      <stop offset="1" stop-color="white"/>
    </linearGradient>
    <linearGradient id="paint18_linear_9077_8972" x1="7.37454" y1="20.2654" x2="18.4503" y2="32.8158" gradientUnits="userSpaceOnUse">
      <stop stop-color="#C4DFE5"/>
      <stop offset="0.165764" stop-color="#6AA1B1"/>
      <stop offset="0.735964" stop-color="#7AC0CE"/>
    </linearGradient>
    <linearGradient id="paint19_linear_9077_8972" x1="5.24074" y1="18.9162" x2="21.1484" y2="31.5294" gradientUnits="userSpaceOnUse">
      <stop stop-color="#BFDFE5"/>
      <stop offset="0.133447" stop-color="#DAF9FF"/>
      <stop offset="0.388448" stop-color="#B0DBEB"/>
      <stop offset="1" stop-color="#CDEDF4"/>
    </linearGradient>
    <linearGradient id="paint20_linear_9077_8972" x1="12.489" y1="31.5292" x2="6.7786" y2="31.1214" gradientUnits="userSpaceOnUse">
      <stop stop-color="#D3D1D1"/>
      <stop offset="0.453665" stop-color="#B0B4B4"/>
      <stop offset="1" stop-color="#888E8E"/>
    </linearGradient>
    <linearGradient id="paint21_linear_9077_8972" x1="4.51928" y1="21.6145" x2="15.846" y2="27.576" gradientUnits="userSpaceOnUse">
      <stop offset="0.0329535" stop-color="#F4EFEE"/>
      <stop offset="0.236985" stop-color="#6A6D6D"/>
      <stop offset="0.590555" stop-color="#9E9C9C"/>
      <stop offset="1" stop-color="#E8E4E4"/>
    </linearGradient>
    <linearGradient id="paint22_linear_9077_8972" x1="6.68419" y1="26.4151" x2="9.72767" y2="42.6992" gradientUnits="userSpaceOnUse">
      <stop offset="0.486753" stop-color="#DDCECD"/>
      <stop offset="0.757828" stop-color="#DDCECD" stop-opacity="0"/>
    </linearGradient>
    <linearGradient id="paint23_linear_9077_8972" x1="6.99754" y1="26.565" x2="7.65644" y2="39.091" gradientUnits="userSpaceOnUse">
      <stop offset="0.586599" stop-color="#2E2E2D"/>
      <stop offset="1" stop-color="#949491"/>
    </linearGradient>
    <linearGradient id="paint24_linear_9077_8972" x1="7.12352" y1="26.6905" x2="7.78242" y2="39.2165" gradientUnits="userSpaceOnUse">
      <stop offset="0.586599" stop-color="#2E2E2D"/>
      <stop offset="1" stop-color="#949491"/>
    </linearGradient>
    <linearGradient id="paint25_linear_9077_8972" x1="0.502202" y1="31.7489" x2="8.2207" y2="28.8623" gradientUnits="userSpaceOnUse">
      <stop stop-color="#8F9998"/>
      <stop offset="1" stop-color="#B4B7B7"/>
    </linearGradient>
    <linearGradient id="paint26_linear_9077_8972" x1="5.21857" y1="31.7176" x2="5.20883" y2="39.4361" gradientUnits="userSpaceOnUse">
      <stop stop-color="#F3F0EF"/>
      <stop offset="1" stop-color="#D9D9D9" stop-opacity="0"/>
    </linearGradient>
    <linearGradient id="paint27_linear_9077_8972" x1="2.5086" y1="28.1787" x2="3.01573" y2="37.7664" gradientUnits="userSpaceOnUse">
      <stop stop-color="#C0C0C0"/>
      <stop offset="0.547545" stop-color="#5A5A5A"/>
    </linearGradient>
    <clipPath id="clip0_9077_8972">
      <rect width="36" height="36" rx="18" transform="matrix(-1 0 0 1 36 0)" fill="white"/>
    </clipPath>
    <clipPath id="clip1_9077_8972">
      <rect width="37" height="36.6408" fill="white" transform="matrix(-1 0 0 1 34.9512 1.94177)"/>
    </clipPath>
  </defs>
</svg>
