<svg xmlns="http://www.w3.org/2000/svg" fill="none" viewBox="13.25 8 45.51 56">
<path fill-rule="evenodd" clip-rule="evenodd" d="M38.233 8C41.7625 8.00005 44.8173 8.41478 47.3976 9.24238C49.978 10.0701 52.1081 11.2264 53.7878 12.7114C55.4673 14.1962 56.7087 15.9728 57.5121 18.0418C58.3398 20.111 58.7545 22.3755 58.7545 24.8342C58.7545 27.3903 58.3284 29.7398 57.4764 31.882C56.6244 33.9998 55.3463 35.8257 53.6423 37.3593C51.9382 38.893 49.7954 40.0861 47.215 40.9382C44.6591 41.79 41.665 42.2162 38.233 42.2162H37.2545V42.2191H30.8928V47.3398H52.407V55.008H30.8928V64H21.0707V55.008H13.2455V47.3398H21.0707V42.2191H13.2455V34.5508H21.0707V8H38.233ZM30.8928 34.5479H38.233C40.0342 34.5479 41.6042 34.3285 42.9429 33.8904C44.2818 33.4278 45.3901 32.7824 46.2664 31.9548C47.1669 31.1029 47.8366 30.0806 48.2748 28.888C48.713 27.6708 48.9309 26.3192 48.9309 24.8342C48.9309 23.4224 48.7129 22.1442 48.2748 21.0001C47.8366 19.8559 47.1785 18.8822 46.3021 18.0789C45.4259 17.2757 44.3186 16.6669 42.98 16.2531C41.6413 15.8149 40.0585 15.5956 38.233 15.5955H30.8928V34.5479Z" fill="#FBB562"/>
</svg>