<svg width="177" height="196" viewBox="0 0 177 196" fill="none" xmlns="http://www.w3.org/2000/svg">
<g clip-path="url(#clip0_3375_2766)">
<rect x="0.5" width="176" height="196" rx="12" fill="#EDF2FE"/>
<g filter="url(#filter0_f_3375_2766)">
<ellipse cx="130.5" cy="41.3876" rx="96" ry="91.3876" fill="#FFFEEC"/>
</g>
<path d="M157.725 37.4039L147.649 41.3599C147.394 45.1459 147.249 48.9489 147.231 52.7639L146.434 52.8329C146.302 51.3029 145.761 45.1449 145.761 37.4389C145.751 34.6479 144.886 33.9299 142.611 34.2919C135.926 35.3559 97.6616 47.4689 74.2405 61.264C72.7215 62.159 72.1295 63.113 72.1855 65.514C72.2205 67.02 72.2655 69.251 72.3045 71.279L65.4785 74.015C65.9295 83.3391 65.9585 92.6731 65.5575 102.007L76.8956 97.5221C78.8266 96.7591 79.4686 95.9651 79.3586 95.1841C79.4016 92.8611 79.4006 90.5381 79.3946 88.2151C77.9366 88.6311 76.4816 89.0911 75.1396 89.7231L74.7666 89.2881C80.0086 84.9011 105.598 74.223 105.86 74.116C120.913 67.984 132.813 64.507 137.997 63.068C136.646 69.088 137.72 73.356 142.922 71.289L159.52 64.754C158.32 55.689 157.714 46.5519 157.726 37.4029L157.725 37.4039Z" fill="url(#paint0_linear_3375_2766)"/>
<path d="M141.465 48.4892V48.4772C141.453 48.4182 141.416 48.3592 141.391 48.3002C141.366 48.2062 141.354 48.1122 141.293 48.0292V48.0172C141.256 47.9702 141.194 47.9352 141.145 47.8882C141.083 47.8292 141.034 47.7462 140.96 47.7002H140.948L140.936 47.6882L136.337 45.0352C136.152 44.9292 135.918 44.8822 135.672 44.9172L117.228 47.7162L110.173 30.6511C110.161 30.6041 110.136 30.5571 110.111 30.5101H110.099C110.099 30.4861 110.087 30.4751 110.074 30.4631C110.049 30.4391 110.037 30.4161 110.025 30.3921C110.017 30.3921 110.013 30.3881 110.013 30.3801L109.914 30.2861C109.889 30.2741 109.877 30.2621 109.865 30.2511C109.84 30.2391 109.828 30.2271 109.803 30.2161V30.2041H109.791C107.734 29.0491 105.666 27.8951 103.621 26.7521L103.522 26.6931C103.51 26.6931 103.51 26.6811 103.497 26.6811C103.398 26.6341 103.3 26.5981 103.201 26.5871C103.103 26.5751 103.004 26.5751 102.893 26.5871C102.795 26.6111 102.696 26.6341 102.597 26.6811C102.499 26.7281 102.412 26.7871 102.326 26.8691C102.24 26.9401 102.166 27.0341 102.104 27.1281C102.042 27.2341 102.005 27.3521 101.968 27.4821L96.5498 50.8702L74.3217 54.2512C74.0757 54.2862 73.8657 54.4042 73.7057 54.5692C73.5457 54.7342 73.4227 54.9462 73.3727 55.1702C73.3107 55.3942 73.3107 55.6302 73.3727 55.8422C73.4467 56.0542 73.5817 56.2432 73.7787 56.3722L92.5587 68.1543L86.6357 93.7454C86.5867 93.9694 86.5867 94.1814 86.6237 94.3694C86.6727 94.5574 86.7467 94.7234 86.8577 94.8644C86.9687 95.0064 87.1037 95.1004 87.2637 95.1704C87.3747 95.2294 87.5097 95.2534 87.6457 95.2534C87.6577 95.2534 87.6707 95.2414 87.6827 95.2414H87.7077C87.6827 95.2534 87.6707 95.2534 87.6457 95.2534L95.2808 95.0884H95.3798C95.4288 95.0764 95.4788 95.0644 95.5278 95.0534C95.5768 95.0414 95.6388 95.0184 95.6878 94.9944C95.7368 94.9594 95.7868 94.9354 95.8358 94.9004C95.8848 94.8654 95.9218 94.8184 95.9708 94.7714L110.983 79.7133L127.029 89.7754C127.078 89.8104 127.14 89.8454 127.201 89.8694C127.25 89.8934 127.312 89.9044 127.373 89.9164C127.422 89.9284 127.484 89.9404 127.545 89.9404H127.557L132.988 90.0934H133.099C133.111 90.0934 133.124 90.0934 133.136 90.0814C133.308 90.0574 133.468 89.9984 133.604 89.8924C133.752 89.7984 133.863 89.6564 133.949 89.5034C134.035 89.3504 134.097 89.1734 134.109 88.9734C134.121 88.7854 134.097 88.5844 134.01 88.3964L124.725 65.9163L141.14 49.4562C141.214 49.3852 141.263 49.3032 141.312 49.2322C141.337 49.1972 141.337 49.1622 141.361 49.1382C141.386 49.0912 141.41 49.0442 141.423 48.9852C141.435 48.9502 141.435 48.9142 141.448 48.8792C141.46 48.8322 141.473 48.7852 141.473 48.7372V48.6192C141.461 48.5722 141.473 48.5372 141.461 48.4902L141.465 48.4892Z" fill="white"/>
<path d="M111.918 79.3327L106.356 75.8467L92.5801 89.5997" stroke="black" stroke-width="0.8" stroke-linecap="round" stroke-linejoin="round"/>
<path d="M131.052 50.126L117.666 63.495L125.469 82.7871" stroke="black" stroke-width="0.8" stroke-linecap="round" stroke-linejoin="round"/>
<path d="M105.92 33.6768L111.84 48.3058" stroke="black" stroke-width="0.8" stroke-linecap="round" stroke-linejoin="round"/>
<path d="M106.604 76.4422L126.93 89.1923C126.987 89.2283 127.045 89.2583 127.103 89.2813C127.161 89.3053 127.219 89.3233 127.277 89.3363C127.335 89.3493 127.392 89.3563 127.45 89.3583C127.507 89.3603 127.564 89.3583 127.619 89.3503C127.606 89.3523 127.593 89.3533 127.58 89.3543C127.567 89.3553 127.554 89.3563 127.541 89.3573C127.528 89.3573 127.515 89.3583 127.502 89.3583C127.489 89.3583 127.476 89.3583 127.462 89.3583L132.901 89.5093C132.914 89.5093 132.926 89.5093 132.938 89.5093C132.95 89.5093 132.963 89.5093 132.975 89.5083C132.987 89.5083 133 89.5063 133.012 89.5053C133.024 89.5043 133.036 89.5023 133.049 89.5013C133.217 89.4793 133.376 89.4123 133.515 89.3113C133.654 89.2103 133.772 89.0763 133.859 88.9193C133.946 88.7633 134.002 88.5843 134.016 88.3953C134.03 88.2063 134.001 88.0063 133.919 87.8073L124.637 65.3302L141.05 48.8661C141.12 48.7961 141.178 48.7211 141.225 48.6431C141.243 48.6141 141.251 48.5831 141.266 48.5531C141.29 48.5031 141.317 48.4551 141.333 48.4031C141.333 48.4031 141.333 48.4011 141.333 48.4001C141.333 48.4001 141.333 48.3991 141.333 48.3981C141.343 48.3651 141.345 48.3311 141.352 48.2971C141.362 48.2481 141.376 48.1991 141.379 48.1491C141.382 48.1111 141.376 48.0731 141.375 48.0351C141.374 47.9911 141.376 47.9471 141.37 47.9041C141.37 47.9031 141.37 47.9021 141.369 47.9011C141.369 47.8991 141.369 47.8971 141.369 47.8941C141.359 47.8291 141.32 47.7761 141.3 47.7141C141.27 47.6241 141.252 47.5281 141.201 47.4491C141.2 47.4471 141.197 47.4461 141.196 47.4441C141.195 47.4421 141.195 47.4391 141.193 47.4371C141.157 47.3831 141.098 47.3531 141.054 47.3061C140.991 47.2401 140.938 47.1631 140.859 47.1171C140.858 47.1171 140.856 47.1151 140.855 47.1151C140.854 47.1151 140.852 47.1131 140.851 47.1131C140.85 47.1131 140.848 47.1111 140.847 47.1111C140.846 47.1111 140.844 47.1091 140.843 47.1091L136.136 44.4801C135.948 44.3711 135.721 44.3191 135.467 44.3571L112.181 47.8971" stroke="black" stroke-width="1.6" stroke-linecap="round" stroke-linejoin="round"/>
<path d="M92.4599 67.5664L86.5419 93.1605C86.4899 93.3865 86.4909 93.5985 86.5319 93.7875C86.5739 93.9775 86.6559 94.1445 86.7659 94.2805C86.8759 94.4165 87.0139 94.5225 87.1669 94.5875C87.3199 94.6535 87.4889 94.6785 87.6599 94.6555C87.6509 94.6565 87.6429 94.6575 87.6339 94.6585C87.6249 94.6585 87.6169 94.6605 87.6079 94.6605C87.5989 94.6605 87.5909 94.6615 87.5819 94.6625C87.5729 94.6625 87.5649 94.6625 87.5559 94.6625L95.1859 94.5075C95.1939 94.5075 95.2019 94.5075 95.2099 94.5075C95.2179 94.5075 95.2259 94.5075 95.2339 94.5055C95.2419 94.5055 95.2499 94.5045 95.2589 94.5035C95.2669 94.5035 95.2749 94.5015 95.2839 94.5005C95.3349 94.4935 95.3849 94.4825 95.4359 94.4665C95.4869 94.4505 95.5369 94.4305 95.5869 94.4045C95.6369 94.3785 95.6859 94.3485 95.7349 94.3125C95.7829 94.2765 95.8309 94.2355 95.8769 94.1895L110.632 79.3894" stroke="black" stroke-width="1.6" stroke-linecap="round" stroke-linejoin="round"/>
<path d="M117.04 46.9179L110.081 30.0689C110.06 30.0179 110.036 29.9709 110.009 29.9269C110.009 29.9269 110.009 29.9259 110.008 29.9249C110.008 29.9249 110.008 29.9229 110.007 29.9229C109.998 29.9079 109.986 29.8949 109.976 29.8809C109.958 29.8559 109.941 29.8289 109.922 29.8059C109.922 29.8049 109.92 29.8039 109.919 29.8029C109.919 29.8019 109.917 29.8009 109.916 29.7999C109.904 29.7859 109.89 29.7749 109.877 29.7619C109.858 29.7429 109.841 29.7229 109.821 29.7069C109.819 29.7059 109.817 29.7049 109.816 29.7029C109.814 29.7019 109.813 29.6999 109.812 29.6989C109.797 29.6869 109.781 29.6779 109.766 29.6679C109.747 29.6549 109.729 29.6399 109.709 29.6279C109.708 29.6279 109.707 29.6269 109.706 29.6259C109.705 29.6249 109.704 29.6249 109.703 29.6239C109.702 29.6229 109.701 29.6229 109.699 29.6219C109.698 29.6219 109.697 29.6209 109.696 29.6199C107.601 28.4469 105.51 27.2769 103.425 26.1089C103.452 26.1239 103.476 26.1429 103.501 26.1609C103.518 26.1729 103.536 26.1829 103.552 26.1969C103.574 26.2159 103.595 26.2379 103.616 26.2589C103.622 26.2659 103.629 26.2719 103.636 26.2779C103.565 26.2019 103.486 26.1399 103.399 26.0949C103.308 26.0479 103.21 26.0179 103.109 26.0029C103.008 25.9889 102.904 25.9899 102.802 26.0069C102.7 26.0239 102.598 26.0559 102.501 26.1019C102.405 26.1479 102.313 26.2099 102.231 26.2849C102.149 26.3599 102.076 26.4489 102.016 26.5509C101.956 26.6529 101.909 26.7689 101.88 26.8969L96.4642 50.289L74.2331 53.669C73.9841 53.707 73.7751 53.826 73.6131 53.991C73.4511 54.157 73.3371 54.369 73.2801 54.592C73.2231 54.816 73.2231 55.051 73.2881 55.263C73.3541 55.475 73.4861 55.664 73.6931 55.793L92.4632 67.567" stroke="black" stroke-width="1.6" stroke-linecap="round" stroke-linejoin="round"/>
</g>
<defs>
<filter id="filter0_f_3375_2766" x="-25.3958" y="-109.896" width="311.792" height="302.567" filterUnits="userSpaceOnUse" color-interpolation-filters="sRGB">
<feFlood flood-opacity="0" result="BackgroundImageFix"/>
<feBlend mode="normal" in="SourceGraphic" in2="BackgroundImageFix" result="shape"/>
<feGaussianBlur stdDeviation="29.9479" result="effect1_foregroundBlur_3375_2766"/>
</filter>
<linearGradient id="paint0_linear_3375_2766" x1="162.003" y1="123.147" x2="93.9406" y2="50.9229" gradientUnits="userSpaceOnUse">
<stop stop-color="#FF70A2"/>
<stop offset="1" stop-color="#FFA17C" stop-opacity="0.7"/>
</linearGradient>
<clipPath id="clip0_3375_2766">
<rect x="0.5" width="176" height="196" rx="12" fill="white"/>
</clipPath>
</defs>
</svg>
