<svg width="176" height="160" viewBox="0 0 176 160" fill="none" xmlns="http://www.w3.org/2000/svg">
<g clip-path="url(#clip0_3375_2796)">
<rect width="176" height="160" rx="12" fill="#EDF2FE"/>
<g filter="url(#filter0_f_3375_2796)">
<ellipse cx="123.875" cy="38.5007" rx="71.875" ry="71.5007" fill="#FFFEEC"/>
</g>
<path d="M157.969 28.7284L152.183 31C152.037 33.174 151.953 35.3577 151.943 37.5483L151.486 37.5879C151.41 36.7094 151.099 33.1734 151.099 28.7485C151.093 27.1459 150.597 26.7336 149.29 26.9414C145.452 27.5524 123.48 34.5079 110.031 42.4291C109.159 42.9431 108.819 43.4909 108.851 44.8696C108.871 45.7343 108.897 47.0154 108.92 48.1799L105 49.7509C105.259 55.1049 105.276 60.4646 105.045 65.8243L111.556 63.249C112.665 62.8109 113.033 62.3549 112.97 61.9065C112.995 60.5726 112.994 59.2387 112.991 57.9048C112.154 58.1437 111.318 58.4078 110.547 58.7707L110.333 58.5209C113.343 56.0018 128.037 49.8704 128.187 49.8089C136.831 46.2879 143.664 44.2913 146.641 43.465C145.865 46.9218 146.482 49.3725 149.469 48.1856L159 44.4332C158.311 39.2279 157.963 33.9813 157.97 28.7278L157.969 28.7284Z" fill="url(#paint0_linear_3375_2796)"/>
<path d="M148.632 35.0943V35.0874C148.625 35.0535 148.604 35.0197 148.589 34.9858C148.575 34.9318 148.568 34.8778 148.533 34.8302V34.8233C148.512 34.7963 148.476 34.7762 148.448 34.7492C148.413 34.7153 148.384 34.6677 148.342 34.6412H148.335L148.328 34.6344L145.687 33.111C145.581 33.0501 145.447 33.0231 145.306 33.0432L134.715 34.6504L130.664 24.8515C130.657 24.8245 130.642 24.7975 130.628 24.7705H130.621C130.621 24.7567 130.614 24.7504 130.607 24.7435C130.592 24.7297 130.586 24.7165 130.579 24.7027C130.574 24.7027 130.572 24.7005 130.572 24.6959L130.515 24.6419C130.501 24.635 130.494 24.6281 130.487 24.6218C130.472 24.6149 130.466 24.608 130.451 24.6017V24.5948H130.444C129.263 23.9316 128.076 23.2689 126.901 22.6126L126.845 22.5787C126.838 22.5787 126.838 22.5718 126.83 22.5718C126.773 22.5449 126.717 22.5242 126.66 22.5179C126.604 22.511 126.547 22.511 126.483 22.5179C126.427 22.5316 126.37 22.5449 126.313 22.5718C126.257 22.5988 126.207 22.6327 126.158 22.6798C126.108 22.7206 126.066 22.7745 126.03 22.8285C125.995 22.8894 125.973 22.9571 125.952 23.0318L122.841 36.4615L110.077 38.4029C109.936 38.423 109.816 38.4908 109.724 38.5855C109.632 38.6803 109.561 38.802 109.533 38.9306C109.497 39.0592 109.497 39.1948 109.533 39.3165C109.575 39.4382 109.653 39.5468 109.766 39.6208L120.549 46.3862L117.148 61.0809C117.12 61.2096 117.12 61.3313 117.141 61.4392C117.17 61.5472 117.212 61.6425 117.276 61.7235C117.34 61.805 117.417 61.859 117.509 61.8992C117.573 61.9331 117.65 61.9468 117.728 61.9468C117.735 61.9468 117.743 61.94 117.75 61.94H117.764C117.75 61.9468 117.743 61.9468 117.728 61.9468L122.112 61.8521H122.169C122.197 61.8452 122.226 61.8383 122.254 61.832C122.282 61.8251 122.318 61.8119 122.346 61.7981C122.374 61.778 122.403 61.7642 122.431 61.7441C122.459 61.7241 122.481 61.6971 122.509 61.6701L131.129 53.0236L140.343 58.8013C140.371 58.8214 140.406 58.8415 140.441 58.8553C140.469 58.8691 140.505 58.8754 140.54 58.8823C140.568 58.8892 140.604 58.896 140.639 58.896H140.646L143.764 58.9839H143.828C143.835 58.9839 143.842 58.9839 143.849 58.977C143.948 58.9632 144.04 58.9294 144.118 58.8685C144.203 58.8145 144.267 58.733 144.316 58.6451C144.366 58.5573 144.401 58.4556 144.408 58.3408C144.415 58.2328 144.401 58.1174 144.351 58.0095L139.02 45.1011L148.445 35.6496C148.488 35.6088 148.516 35.5617 148.544 35.5209C148.558 35.5008 148.558 35.4807 148.572 35.467C148.587 35.44 148.6 35.413 148.608 35.3791C148.615 35.359 148.615 35.3383 148.622 35.3182C148.629 35.2913 148.637 35.2643 148.637 35.2367V35.1689C148.63 35.142 148.637 35.1219 148.63 35.0949L148.632 35.0943Z" fill="white"/>
<path d="M131.665 52.8054L128.471 50.8037L120.561 58.7009" stroke="black" stroke-width="0.7" stroke-linecap="round" stroke-linejoin="round"/>
<path d="M142.651 36.0342L134.965 43.7108L139.445 54.7886" stroke="black" stroke-width="0.7" stroke-linecap="round" stroke-linejoin="round"/>
<path d="M128.377 27.168L131.502 34.8904" stroke="black" stroke-width="0.7" stroke-linecap="round" stroke-linejoin="round"/>
<path d="M128.613 51.1456L140.285 58.4668C140.317 58.4875 140.351 58.5047 140.384 58.5179C140.417 58.5317 140.451 58.5421 140.484 58.5495C140.517 58.557 140.55 58.561 140.583 58.5621C140.616 58.5633 140.649 58.5622 140.68 58.5576C140.673 58.5587 140.665 58.5593 140.658 58.5599C140.651 58.5604 140.643 58.561 140.636 58.5616C140.628 58.5616 140.621 58.5621 140.613 58.5621C140.606 58.5621 140.598 58.5621 140.59 58.5621L143.713 58.6489C143.721 58.6489 143.728 58.6489 143.735 58.6489C143.742 58.6489 143.749 58.6489 143.756 58.6483C143.763 58.6483 143.77 58.6471 143.777 58.6466C143.784 58.646 143.791 58.6448 143.798 58.6443C143.895 58.6316 143.986 58.5932 144.066 58.5352C144.146 58.4772 144.214 58.4002 144.263 58.3101C144.313 58.2205 144.346 58.1177 144.354 58.0092C144.362 57.9007 144.345 57.7858 144.298 57.6715L138.968 44.7649L148.393 35.3111C148.433 35.2709 148.466 35.2278 148.493 35.183C148.503 35.1664 148.508 35.1486 148.517 35.1313C148.53 35.1026 148.546 35.0751 148.555 35.0452C148.555 35.0452 148.555 35.0441 148.555 35.0435C148.555 35.0435 148.555 35.0429 148.555 35.0423C148.561 35.0234 148.562 35.0039 148.566 34.9843C148.572 34.9562 148.58 34.9281 148.582 34.8994C148.583 34.8775 148.58 34.8557 148.579 34.8339C148.579 34.8086 148.58 34.7834 148.576 34.7587C148.576 34.7581 148.576 34.7575 148.576 34.757C148.576 34.7558 148.576 34.7547 148.576 34.7529C148.57 34.7156 148.548 34.6852 148.536 34.6496C148.519 34.5979 148.509 34.5428 148.479 34.4974C148.479 34.4963 148.477 34.4957 148.476 34.4945C148.476 34.4934 148.476 34.4917 148.475 34.4905C148.454 34.4595 148.42 34.4423 148.395 34.4153C148.359 34.3774 148.328 34.3332 148.283 34.3068C148.282 34.3068 148.281 34.3056 148.281 34.3056C148.28 34.3056 148.279 34.3045 148.278 34.3045C148.278 34.3045 148.277 34.3033 148.276 34.3033C148.276 34.3033 148.274 34.3022 148.274 34.3022L145.571 32.7926C145.463 32.73 145.333 32.7001 145.187 32.7219L131.816 34.7547" stroke="black" stroke-width="1.4" stroke-linecap="round" stroke-linejoin="round"/>
<path d="M120.491 46.0488L117.093 60.7453C117.063 60.875 117.064 60.9968 117.088 61.1053C117.112 61.2144 117.159 61.3103 117.222 61.3884C117.285 61.4665 117.364 61.5273 117.452 61.5647C117.54 61.6026 117.637 61.6169 117.735 61.6037C117.73 61.6043 117.725 61.6049 117.72 61.6054C117.715 61.6054 117.711 61.6066 117.705 61.6066C117.7 61.6066 117.696 61.6072 117.69 61.6077C117.685 61.6077 117.681 61.6077 117.676 61.6077L122.057 61.5187C122.061 61.5187 122.066 61.5187 122.071 61.5187C122.075 61.5187 122.08 61.5187 122.084 61.5176C122.089 61.5176 122.094 61.517 122.099 61.5164C122.103 61.5164 122.108 61.5153 122.113 61.5147C122.142 61.5107 122.171 61.5044 122.2 61.4952C122.23 61.486 122.258 61.4745 122.287 61.4596C122.316 61.4447 122.344 61.4274 122.372 61.4068C122.4 61.3861 122.427 61.3625 122.454 61.3361L130.926 52.8378" stroke="black" stroke-width="1.4" stroke-linecap="round" stroke-linejoin="round"/>
<path d="M134.607 34.192L130.611 24.5171C130.599 24.4878 130.585 24.4608 130.569 24.4355C130.569 24.4355 130.569 24.435 130.569 24.4344C130.569 24.4344 130.569 24.4332 130.568 24.4332C130.563 24.4246 130.556 24.4172 130.55 24.4091C130.54 24.3948 130.53 24.3793 130.519 24.3661C130.519 24.3655 130.518 24.3649 130.518 24.3643C130.518 24.3638 130.517 24.3632 130.516 24.3626C130.509 24.3546 130.501 24.3483 130.494 24.3408C130.483 24.3299 130.473 24.3184 130.461 24.3092C130.46 24.3086 130.459 24.3081 130.459 24.3069C130.457 24.3063 130.457 24.3052 130.456 24.3046C130.448 24.2977 130.438 24.2926 130.43 24.2868C130.419 24.2794 130.409 24.2707 130.397 24.2639C130.397 24.2639 130.396 24.2633 130.395 24.2627C130.395 24.2621 130.394 24.2621 130.394 24.2616C130.393 24.261 130.393 24.261 130.391 24.2604C130.391 24.2604 130.39 24.2598 130.39 24.2593C129.187 23.5857 127.986 22.9139 126.789 22.2432C126.804 22.2518 126.818 22.2627 126.832 22.2731C126.842 22.2799 126.853 22.2857 126.862 22.2937C126.874 22.3046 126.886 22.3173 126.898 22.3293C126.902 22.3333 126.906 22.3368 126.91 22.3402C126.869 22.2966 126.824 22.261 126.774 22.2352C126.722 22.2082 126.665 22.1909 126.607 22.1823C126.549 22.1743 126.49 22.1749 126.431 22.1846C126.372 22.1944 126.314 22.2128 126.258 22.2392C126.203 22.2656 126.15 22.3012 126.103 22.3443C126.056 22.3873 126.014 22.4384 125.98 22.497C125.945 22.5556 125.918 22.6222 125.902 22.6957L122.792 36.1277L110.026 38.0685C109.883 38.0904 109.763 38.1587 109.67 38.2534C109.577 38.3488 109.512 38.4705 109.479 38.5985C109.446 38.7272 109.446 38.8621 109.484 38.9838C109.522 39.1056 109.597 39.2141 109.716 39.2882L120.494 46.049" stroke="black" stroke-width="1.4" stroke-linecap="round" stroke-linejoin="round"/>
</g>
<defs>
<filter id="filter0_f_3375_2796" x="-7.89583" y="-92.8958" width="263.542" height="262.793" filterUnits="userSpaceOnUse" color-interpolation-filters="sRGB">
<feFlood flood-opacity="0" result="BackgroundImageFix"/>
<feBlend mode="normal" in="SourceGraphic" in2="BackgroundImageFix" result="shape"/>
<feGaussianBlur stdDeviation="29.9479" result="effect1_foregroundBlur_3375_2796"/>
</filter>
<linearGradient id="paint0_linear_3375_2796" x1="160.425" y1="77.9632" x2="121.343" y2="36.4912" gradientUnits="userSpaceOnUse">
<stop stop-color="#FF70A2"/>
<stop offset="1" stop-color="#FFA17C" stop-opacity="0.7"/>
</linearGradient>
<clipPath id="clip0_3375_2796">
<rect width="176" height="160" rx="12" fill="white"/>
</clipPath>
</defs>
</svg>
