<svg width="176" height="160" viewBox="0 0 176 160" fill="none" xmlns="http://www.w3.org/2000/svg">
<g clip-path="url(#clip0_420_24670)">
<rect width="176" height="160" rx="12" fill="#EDF2FE"/>
<g filter="url(#filter0_f_420_24670)">
<ellipse cx="123.875" cy="38.5007" rx="71.875" ry="71.5007" fill="#FAEDFF"/>
</g>
<path d="M148.126 70.4626L158.23 42.6847C158.439 42.1112 158.331 41.4688 157.945 40.9954L139.583 18.4753C139.197 18.0018 138.532 17.8642 137.988 18.1437L110.631 32.2714C110.36 32.4111 110.168 32.6677 110.112 32.9659L105 59.5571L148.126 70.4605V70.4626Z" fill="white"/>
<path d="M148.126 70.4626L158.23 42.6847C158.439 42.1112 158.331 41.4688 157.945 40.9954L139.583 18.4753C139.197 18.0018 138.532 17.8642 137.988 18.1437L110.631 32.2714C110.36 32.4111 110.168 32.6677 110.112 32.9659L105 59.5571L148.126 70.4606V70.4626Z" stroke="black" stroke-width="1.5" stroke-linecap="round" stroke-linejoin="round"/>
<path d="M154.778 43.0673L148.763 47.3261L115.212 40.4228L112.505 34.8334" stroke="black" stroke-width="0.8" stroke-linecap="round" stroke-linejoin="round"/>
<path d="M148.933 35.3372L117.557 33.3806" stroke="black" stroke-width="0.8" stroke-linecap="round" stroke-linejoin="round"/>
<path d="M147.683 46.9763C148.001 45.4901 148.268 43.99 148.478 42.4821C148.809 40.1196 148.916 37.7196 148.93 35.3339" stroke="black" stroke-width="0.8" stroke-linecap="round" stroke-linejoin="round"/>
<path d="M117.538 33.3783C117.7 35.9822 117.511 38.4382 117.003 40.7626" stroke="black" stroke-width="0.8" stroke-linecap="round" stroke-linejoin="round"/>
<path d="M143.009 41.112L125.653 39.4031" stroke="black" stroke-width="0.6" stroke-linecap="round" stroke-linejoin="round"/>
<path d="M120.747 40.1971C120.779 40.2151 121.037 36.4072 121.037 36.4072" stroke="black" stroke-width="0.6" stroke-linecap="round" stroke-linejoin="round"/>
<path d="M121.033 36.4093L122.651 36.6098C123.131 36.675 123.477 37.1043 123.443 37.5877C123.406 38.0926 122.97 38.4722 122.465 38.4368L120.143 38.2253" stroke="black" stroke-width="0.6" stroke-linecap="round" stroke-linejoin="round"/>
<path d="M120.008 39.3633L121.668 39.5261" stroke="black" stroke-width="0.6" stroke-linecap="round" stroke-linejoin="round"/>
<path d="M140.344 54.5619L138.076 61.8398C137.947 62.2203 138.161 62.6029 138.55 62.6948L140.022 63.0401C140.223 63.0872 140.387 63.2315 140.46 63.4248L140.924 64.6568L142.246 63.7939C142.385 63.7033 142.554 63.6721 142.716 63.7073L144.455 64.0856C144.844 64.1774 145.266 63.9434 145.393 63.5651L147.822 56.3553L140.344 54.5619Z" fill="url(#paint0_linear_420_24670)"/>
</g>
<defs>
<filter id="filter0_f_420_24670" x="-7.89583" y="-92.8958" width="263.542" height="262.793" filterUnits="userSpaceOnUse" color-interpolation-filters="sRGB">
<feFlood flood-opacity="0" result="BackgroundImageFix"/>
<feBlend mode="normal" in="SourceGraphic" in2="BackgroundImageFix" result="shape"/>
<feGaussianBlur stdDeviation="29.9479" result="effect1_foregroundBlur_420_24670"/>
</filter>
<linearGradient id="paint0_linear_420_24670" x1="131.615" y1="72.1015" x2="152.846" y2="45.1078" gradientUnits="userSpaceOnUse">
<stop offset="0.0476104" stop-color="#F4B6FF" stop-opacity="0.35"/>
<stop offset="0.621982" stop-color="#F4B6FF"/>
</linearGradient>
<clipPath id="clip0_420_24670">
<rect width="176" height="160" rx="12" fill="white"/>
</clipPath>
</defs>
</svg>
